<svg width="52" height="52" viewBox="0 0 52 52" fill="none" xmlns="http://www.w3.org/2000/svg">
<g filter="url(#filter0_d_6_5262)">
<rect x="2" width="48" height="48" rx="8" fill="white" shape-rendering="crispEdges"/>
<rect x="2.5" y="0.5" width="47" height="47" rx="7.5" stroke="#2E3539" stroke-opacity="0.1" shape-rendering="crispEdges"/>
<path d="M16 15C17.6569 15 19 16.3431 19 18M19 18H29.5C29.9643 18 30.1965 18 30.3921 18.0193C32.2912 18.2063 33.7937 19.7088 33.9807 21.6079C34 21.8035 34 22.0357 34 22.5C34 22.9643 34 23.1965 33.9807 23.3921C33.7937 25.2912 32.2912 26.7937 30.3921 26.9807C30.1965 27 29.9643 27 29.5 27H24C23.0707 27 22.606 27 22.2196 26.9231C20.6329 26.6075 19.3925 25.3671 19.0769 23.7804C19 23.394 19 22.9293 19 22V18Z" stroke="url(#paint0_linear_6_5262)" stroke-width="2" stroke-linecap="round" stroke-linejoin="round"/>
<path d="M28 27H21C19.8954 27 19 27.8954 19 29C19 30.1046 19.8954 31 21 31H33" stroke="url(#paint1_linear_6_5262)" stroke-width="2" stroke-linecap="round" stroke-linejoin="round"/>
<path d="M31 31L31 32" stroke="url(#paint2_linear_6_5262)" stroke-width="2" stroke-linecap="round" stroke-linejoin="round"/>
<path d="M22 31L22 32" stroke="url(#paint3_linear_6_5262)" stroke-width="2" stroke-linecap="round" stroke-linejoin="round"/>
</g>
<defs>
<filter id="filter0_d_6_5262" x="0" y="0" width="52" height="52" filterUnits="userSpaceOnUse" color-interpolation-filters="sRGB">
<feFlood flood-opacity="0" result="BackgroundImageFix"/>
<feColorMatrix in="SourceAlpha" type="matrix" values="0 0 0 0 0 0 0 0 0 0 0 0 0 0 0 0 0 0 127 0" result="hardAlpha"/>
<feOffset dy="2"/>
<feGaussianBlur stdDeviation="1"/>
<feComposite in2="hardAlpha" operator="out"/>
<feColorMatrix type="matrix" values="0 0 0 0 0.28099 0 0 0 0 0.313411 0 0 0 0 0.345833 0 0 0 0.08 0"/>
<feBlend mode="normal" in2="BackgroundImageFix" result="effect1_dropShadow_6_5262"/>
<feBlend mode="normal" in="SourceGraphic" in2="effect1_dropShadow_6_5262" result="shape"/>
</filter>
<linearGradient id="paint0_linear_6_5262" x1="25" y1="15" x2="25" y2="27" gradientUnits="userSpaceOnUse">
<stop stop-color="#2E3539"/>
<stop offset="1" stop-color="#2E3539" stop-opacity="0.22"/>
</linearGradient>
<linearGradient id="paint1_linear_6_5262" x1="26" y1="27" x2="26" y2="31" gradientUnits="userSpaceOnUse">
<stop stop-color="#2E3539"/>
<stop offset="1" stop-color="#2E3539" stop-opacity="0.22"/>
</linearGradient>
<linearGradient id="paint2_linear_6_5262" x1="31.5" y1="31" x2="31.5" y2="32" gradientUnits="userSpaceOnUse">
<stop stop-color="#2E3539"/>
<stop offset="1" stop-color="#2E3539" stop-opacity="0.22"/>
</linearGradient>
<linearGradient id="paint3_linear_6_5262" x1="22.5" y1="31" x2="22.5" y2="32" gradientUnits="userSpaceOnUse">
<stop stop-color="#2E3539"/>
<stop offset="1" stop-color="#2E3539" stop-opacity="0.22"/>
</linearGradient>
</defs>
</svg>
