<svg width="650" height="543" viewBox="0 0 650 543" fill="none" xmlns="http://www.w3.org/2000/svg">
<g filter="url(#filter0_d_6_5298)">
<g clip-path="url(#clip0_6_5298)">
<path fill-rule="evenodd" clip-rule="evenodd" d="M138.5 3H58.5V-57H138.5V3Z" fill="white"/>
<path fill-rule="evenodd" clip-rule="evenodd" d="M138.5 2.99995H58.5V-17H138.5V2.99995ZM138.5 -36.9875H58.5V-56.9875H138.5V-36.9875Z" fill="#C8102E"/>
</g>
<rect x="58" y="-57.5" width="81" height="61" rx="14.5" stroke="black" stroke-opacity="0.1" shape-rendering="crispEdges"/>
</g>
<g filter="url(#filter1_d_6_5298)">
<g clip-path="url(#clip1_6_5298)">
<path fill-rule="evenodd" clip-rule="evenodd" d="M209.5 -57H236.163V3H209.5V-57Z" fill="black"/>
<path fill-rule="evenodd" clip-rule="evenodd" d="M236.162 -57H262.837V3H236.162V-57Z" fill="#FFD90C"/>
<path fill-rule="evenodd" clip-rule="evenodd" d="M262.838 -57H289.5V3H262.838V-57Z" fill="#F31830"/>
</g>
<rect x="209" y="-57.5" width="81" height="61" rx="14.5" stroke="black" stroke-opacity="0.1" shape-rendering="crispEdges"/>
</g>
<g filter="url(#filter2_d_6_5298)">
<g clip-path="url(#clip2_6_5298)">
<path d="M379.263 -57H421.725V3H379.25L379.263 -57Z" fill="white"/>
<path d="M358.037 -57H379.262V3H358.037V-57ZM421.725 -57H442.95V3H421.737L421.725 -57ZM385.625 -28L383.962 -27.45L391.637 -20.7C392.225 -18.9875 391.437 -18.475 390.937 -17.575L399.262 -18.625L399.062 -10.25L400.8 -10.2875L400.412 -18.6125L408.75 -17.6125C408.237 -18.7 407.775 -19.275 408.25 -21.0125L415.912 -27.3875L414.575 -27.8875C413.475 -28.7375 415.05 -31.9625 415.275 -34C415.275 -34 410.812 -32.4625 410.525 -33.275L409.375 -35.4625L405.3 -30.9875C404.862 -30.875 404.675 -31.05 404.562 -31.425L406.437 -40.775L403.462 -39.1C403.212 -38.9875 402.962 -39.0875 402.812 -39.375L399.937 -45.125L396.987 -39.15C396.762 -38.9375 396.537 -38.9125 396.362 -39.0625L393.5 -40.65L395.212 -31.3875C395.075 -31.0125 394.75 -30.9125 394.375 -31.1125L390.475 -35.525C389.975 -34.7125 389.625 -33.3875 388.95 -33.0875C388.275 -32.8 386.012 -33.65 384.5 -33.9625C385.025 -32.1125 386.625 -29.0125 385.625 -28Z" fill="#D52B1E"/>
</g>
<rect x="360" y="-57.5" width="81" height="61" rx="14.5" stroke="black" stroke-opacity="0.1" shape-rendering="crispEdges"/>
</g>
<g filter="url(#filter3_d_6_5298)">
<g clip-path="url(#clip3_6_5298)">
<path d="M511.5 -57H591.5V3H511.5V-57Z" fill="#000066"/>
</g>
<rect x="511" y="-57.5" width="81" height="61" rx="14.5" stroke="black" stroke-opacity="0.1" shape-rendering="crispEdges"/>
</g>
<g filter="url(#filter4_d_6_5298)">
<g clip-path="url(#clip4_6_5298)">
<path fill-rule="evenodd" clip-rule="evenodd" d="M58.5 74H85.25V134H58.5V74Z" fill="#002664"/>
<path fill-rule="evenodd" clip-rule="evenodd" d="M111.75 74H138.5V134H111.75V74Z" fill="#C60C30"/>
<path fill-rule="evenodd" clip-rule="evenodd" d="M85.25 74H111.75V134H85.25V74Z" fill="#FECB00"/>
</g>
<rect x="58" y="73.5" width="81" height="61" rx="14.5" stroke="black" stroke-opacity="0.1" shape-rendering="crispEdges"/>
</g>
<g filter="url(#filter5_d_6_5298)">
<g clip-path="url(#clip5_6_5298)">
<path d="M209.5 74H289.5V134H209.5V74Z" fill="#EE1C25"/>
<path d="M219.1 96.2L224.5 80L229.9 96.2L215.5 86.3H233.5L219.1 96.2Z" fill="#FFFF00"/>
<path d="M242.521 80.3105L236.964 81.542L240.671 77.2224L240.307 83.036L237.223 77.8892L242.521 80.3105Z" fill="#FFFF00"/>
<path d="M248.13 87.4184L242.53 86.3982L247.622 83.8544L245.032 89.0719L244.186 83.1319L248.13 87.4184Z" fill="#FFFF00"/>
<path d="M247.313 97.3905L242.616 94.1751L248.303 93.9293L243.81 97.6369L245.46 91.8682L247.313 97.3905Z" fill="#FFFF00"/>
<path d="M240.249 103.905L237.158 99.1251L242.498 101.095L236.923 102.779L240.672 98.0956L240.249 103.905Z" fill="#FFFF00"/>
</g>
<rect x="209" y="73.5" width="81" height="61" rx="14.5" stroke="black" stroke-opacity="0.1" shape-rendering="crispEdges"/>
</g>
<g filter="url(#filter6_d_6_5298)">
<g clip-path="url(#clip6_6_5298)">
<path fill-rule="evenodd" clip-rule="evenodd" d="M360.5 74H440.5V134H360.5V74Z" fill="white"/>
<path fill-rule="evenodd" clip-rule="evenodd" d="M360.5 74H387.163V134H360.5V74Z" fill="#002654"/>
<path fill-rule="evenodd" clip-rule="evenodd" d="M413.838 74H440.5V134H413.838V74Z" fill="#CE1126"/>
</g>
<rect x="360" y="73.5" width="81" height="61" rx="14.5" stroke="black" stroke-opacity="0.1" shape-rendering="crispEdges"/>
</g>
<g filter="url(#filter7_d_6_5298)">
<g clip-path="url(#clip7_6_5298)">
<path fill-rule="evenodd" clip-rule="evenodd" d="M511.5 74H591.5V134H511.5V74Z" fill="#FFE800"/>
<path fill-rule="evenodd" clip-rule="evenodd" d="M511.5 104H591.5V134H511.5V104Z" fill="#00148E"/>
<path fill-rule="evenodd" clip-rule="evenodd" d="M511.5 119H591.5V134H511.5V119Z" fill="#DA0010"/>
</g>
<rect x="511" y="73.5" width="81" height="61" rx="14.5" stroke="black" stroke-opacity="0.1" shape-rendering="crispEdges"/>
</g>
<g filter="url(#filter8_d_6_5298)">
<g clip-path="url(#clip8_6_5298)">
<path d="M58.5 205H138.5V265H58.5V205Z" fill="#000066"/>
<path fill-rule="evenodd" clip-rule="evenodd" d="M117.45 231.625L118.1 229.538L116.35 228.212L118.55 228.188L119.3 226.125L120 228.188L122.212 228.25L120.45 229.562L121.075 231.65L119.262 230.4M122.65 232.025L123.95 230.288L122.737 228.438L124.825 229.163L126.2 227.475V229.675L128.25 230.475L126.15 231.1L126.05 233.288L124.775 231.487M112.475 233.362L112.387 231.175L110.287 230.525L112.375 229.75V227.575L113.737 229.263L115.837 228.562L114.612 230.4L115.9 232.15L113.775 231.587M108.825 236.7L107.9 234.725L105.725 234.95L107.325 233.413L106.5 231.375L108.4 232.4L110.062 230.925L109.637 233.1L111.5 234.212L109.337 234.525M107.125 241.475L105.462 240.088L103.587 241.237L104.387 239.15L102.775 237.7L104.937 237.787L105.812 235.737L106.35 237.888L108.5 238.075L106.675 239.3M107.075 246.85L105.012 246.25L103.75 248.062L103.662 245.825L101.612 245.138L103.625 244.362V242.112L104.962 243.875L107.012 243.175L105.812 245.05M109.5 251.4L107.375 251.7L106.937 253.875L105.962 251.875L103.825 252.075L105.35 250.537L104.462 248.487L106.375 249.55L107.975 248.075L107.625 250.25M113.25 255L111.362 256.025L111.687 258.225L110.1 256.675L108.15 257.625L109.062 255.638L107.525 254.025L109.687 254.35L110.687 252.412L111.112 254.588M117.837 255.713L116.8 257.625L118.262 259.275L116.087 258.862L114.975 260.737L114.675 258.575L112.525 258.075L114.5 257.15L114.287 254.963L115.812 256.562M122.987 254.925L122.925 257.1L124.962 257.9L122.837 258.525L122.687 260.713L121.437 258.925L119.312 259.475L120.662 257.737L119.487 255.9L121.562 256.612M128.375 231.225L129.875 232.8L131.862 231.875L130.825 233.85L132.262 235.487L130.137 235.138L129.012 237.075L128.75 234.875L126.625 234.438L128.587 233.438M132.862 236.062L133.55 238.138L135.737 238.175L133.962 239.513L134.55 241.612L132.787 240.362L130.962 241.625L131.637 239.525L129.912 238.2L132.112 238.15M134.55 242.3L134.3 244.475L136.262 245.438L134.1 245.888L133.762 248.05L132.675 246.162L130.5 246.525L132 244.9L130.987 242.963L132.987 243.862M133.362 248.838L132.387 250.787L133.875 252.375L131.7 252.037L130.65 253.95L130.275 251.787L128.1 251.375L130.05 250.375L129.762 248.2L131.337 249.737M130.112 254.625L128.275 255.775L128.75 257.938L127.062 256.5L125.187 257.575L125.975 255.537L124.337 254.025L126.512 254.213L127.387 252.213L127.937 254.362" fill="white"/>
<path d="M58.5 205H98.5V235H58.5V205Z" fill="#000066"/>
<path d="M63.1875 205L78.4375 216.312L93.625 205H98.5V208.875L83.5 220.062L98.5 231.188V235H93.5L78.5 223.812L63.5625 235H58.5V231.25L73.4375 220.125L58.5 209V205H63.1875Z" fill="white"/>
<path d="M85 222.562L98.5 232.5V235L81.5625 222.562H85ZM73.5 223.812L73.875 226L61.875 235H58.5L73.5 223.812ZM98.5 205V205.188L82.9375 216.938L83.0625 214.188L95.375 205H98.5ZM58.5 205L73.4375 216H69.6875L58.5 207.625V205Z" fill="#C8102E"/>
<path d="M73.5625 205V235H83.5625V205H73.5625ZM58.5 215V225H98.5V215H58.5Z" fill="white"/>
<path d="M58.5 217.062V223.062H98.5V217.062H58.5ZM75.5625 205V235H81.5625V205H75.5625Z" fill="#C8102E"/>
</g>
<rect x="58" y="204.5" width="81" height="61" rx="14.5" stroke="black" stroke-opacity="0.1" shape-rendering="crispEdges"/>
</g>
<g filter="url(#filter9_d_6_5298)">
<g clip-path="url(#clip9_6_5298)">
<path fill-rule="evenodd" clip-rule="evenodd" d="M262.85 205H289.5V265H262.85V205Z" fill="#00CD00"/>
<path fill-rule="evenodd" clip-rule="evenodd" d="M209.5 205H236.112V265H209.5V205Z" fill="#FF9A00"/>
<path fill-rule="evenodd" clip-rule="evenodd" d="M236.112 205H262.862V265H236.112V205Z" fill="white"/>
</g>
<rect x="209" y="204.5" width="81" height="61" rx="14.5" stroke="black" stroke-opacity="0.1" shape-rendering="crispEdges"/>
</g>
<g filter="url(#filter10_d_6_5298)">
<g clip-path="url(#clip10_6_5298)">
<path d="M360.5 205H440.512V265H360.5V205Z" fill="#C8102E"/>
<path d="M386.213 205H394.788V265H386.213V205Z" fill="white"/>
<path d="M360.5 230.713H440.512V239.288H360.5V230.713Z" fill="white"/>
</g>
<rect x="360" y="204.5" width="81" height="61" rx="14.5" stroke="black" stroke-opacity="0.1" shape-rendering="crispEdges"/>
</g>
<g filter="url(#filter11_d_6_5298)">
<g clip-path="url(#clip11_6_5298)">
<mask id="mask0_6_5298" style="mask-type:luminance" maskUnits="userSpaceOnUse" x="511" y="205" width="81" height="61">
<path d="M511.484 205H591.702V265.16H511.484V205Z" fill="white"/>
</mask>
<g mask="url(#mask0_6_5298)">
<path fill-rule="evenodd" clip-rule="evenodd" d="M490.723 205.411H612.688V263.926H490.723V205.411Z" fill="#FFC621"/>
<path fill-rule="evenodd" clip-rule="evenodd" d="M490.487 245.244H612.605V265.16H490.487V245.244Z" fill="#EF2118"/>
<path fill-rule="evenodd" clip-rule="evenodd" d="M490.723 205H612.688V226.15H490.723V205Z" fill="#298C08"/>
<path d="M549.551 248.764C556.549 248.764 562.222 243.091 562.222 236.093C562.222 229.095 556.549 223.422 549.551 223.422C542.553 223.422 536.88 229.095 536.88 236.093C536.88 243.091 542.553 248.764 549.551 248.764Z" fill="#006BC6"/>
<path fill-rule="evenodd" clip-rule="evenodd" d="M543.868 227.113L543.104 227.642L545.865 231.52L546.605 231.05L543.856 227.113H543.868ZM547.322 236.278L546.182 235.479L546.652 233.987L541.001 234.069L539.356 232.812L547.075 232.73L548.509 228.394L549.284 230.157L547.322 236.267V236.278ZM556.311 227.971L555.571 227.407L552.715 231.214L553.373 231.766L556.311 227.971ZM548.626 234.022L549.038 232.706H550.6L548.814 227.325L549.519 225.386L551.928 232.718L556.487 232.777L555.054 234.034L548.626 234.011V234.022ZM559.272 240.038L559.589 239.169L555.089 237.606L554.76 238.429L559.272 240.038ZM551.153 234.586L552.527 234.575L553.009 236.055L557.568 232.706L559.636 232.777L553.397 237.324L554.748 241.695L553.103 240.708L551.153 234.586ZM548.826 246.571L549.754 246.595L549.79 241.836L548.92 241.777L548.826 246.583V246.571ZM551.411 237.136L551.858 238.44L550.6 239.38L555.23 242.635L555.817 244.609L549.519 240.144L545.818 242.811L546.229 240.931L551.399 237.136H551.411ZM539.273 238.664L539.544 239.545L544.091 238.111L543.856 237.265L539.273 238.664ZM549.049 238.194L547.945 239.028L546.676 238.123L545.007 243.528L543.315 244.703L545.607 237.336L541.917 234.633L543.832 234.445L549.049 238.194Z" fill="#FFC621"/>
</g>
</g>
<rect x="511" y="204.5" width="81" height="61" rx="14.5" stroke="black" stroke-opacity="0.1" shape-rendering="crispEdges"/>
</g>
<g filter="url(#filter12_d_6_5298)">
<g clip-path="url(#clip12_6_5298)">
<path d="M58.5 336H138.5V396H58.5V336Z" fill="white"/>
<path d="M58.5 336H85.1625V396H58.5V336Z" fill="#002654"/>
<path d="M111.838 336H138.5V396H111.838V336Z" fill="#CE1126"/>
</g>
<rect x="58" y="335.5" width="81" height="61" rx="14.5" stroke="black" stroke-opacity="0.1" shape-rendering="crispEdges"/>
</g>
<g filter="url(#filter13_d_6_5298)">
<g clip-path="url(#clip13_6_5298)">
<path d="M209.5 336H289.5V396H209.5V336Z" fill="white"/>
<path d="M243.5 336H255.5V396H243.5V336Z" fill="#FF0000"/>
<path d="M209.5 360H289.5V372H209.5V360Z" fill="#FF0000"/>
<path fill-rule="evenodd" clip-rule="evenodd" d="M227.85 382.638C227.975 380.538 228.35 378.75 228.35 378.75C228.35 378.75 227.125 378.875 226.5 378.875C225.887 378.875 224.65 378.75 224.65 378.75C224.65 378.75 225.025 380.538 225.15 382.65C223.037 382.525 221.25 382.15 221.25 382.15C221.25 382.15 221.375 383.075 221.375 384C221.375 384.925 221.25 385.85 221.25 385.85C221.25 385.85 223.037 385.475 225.15 385.35C225.025 387.462 224.65 389.25 224.65 389.25C224.65 389.25 225.575 389.125 226.5 389.125C227.425 389.125 228.35 389.25 228.35 389.25C228.35 389.25 227.975 387.462 227.85 385.35C229.963 385.475 231.75 385.85 231.75 385.85C231.75 385.85 231.625 384.625 231.625 384C231.625 383.388 231.75 382.15 231.75 382.15C231.75 382.15 229.962 382.525 227.862 382.65L227.85 382.638ZM273.85 346.637C273.975 344.537 274.35 342.75 274.35 342.75C274.35 342.75 273.125 342.875 272.5 342.875C271.888 342.875 270.65 342.75 270.65 342.75C270.65 342.75 271.025 344.537 271.15 346.637C269.038 346.512 267.25 346.15 267.25 346.15C267.25 346.15 267.375 347.075 267.375 348C267.375 348.925 267.25 349.85 267.25 349.85C267.25 349.85 269.038 349.475 271.15 349.35C271.025 351.463 270.65 353.25 270.65 353.25C270.65 353.25 271.575 353.125 272.5 353.125C273.425 353.125 274.35 353.25 274.35 353.25C274.35 353.25 273.975 351.462 273.85 349.363C275.962 349.488 277.75 349.863 277.75 349.863C277.75 349.863 277.625 348.613 277.625 348C277.625 347.387 277.75 346.15 277.75 346.15C277.75 346.15 275.962 346.525 273.85 346.65V346.637ZM227.85 346.637C227.975 344.537 228.35 342.75 228.35 342.75C228.35 342.75 227.125 342.875 226.5 342.875C225.887 342.875 224.65 342.75 224.65 342.75C224.65 342.75 225.025 344.537 225.15 346.65C223.037 346.525 221.25 346.15 221.25 346.15C221.25 346.15 221.375 347.075 221.375 348C221.375 348.925 221.25 349.85 221.25 349.85C221.25 349.85 223.037 349.475 225.15 349.35C225.025 351.463 224.65 353.25 224.65 353.25C224.65 353.25 225.575 353.125 226.5 353.125C227.425 353.125 228.35 353.25 228.35 353.25C228.35 353.25 227.975 351.463 227.85 349.35C229.963 349.475 231.75 349.85 231.75 349.85C231.75 349.85 231.625 348.625 231.625 348C231.625 347.387 231.75 346.15 231.75 346.15C231.75 346.15 229.962 346.525 227.862 346.65L227.85 346.637ZM273.85 382.638C273.975 380.538 274.35 378.75 274.35 378.75C274.35 378.75 273.125 378.875 272.5 378.875C271.888 378.875 270.65 378.75 270.65 378.75C270.65 378.75 271.025 380.538 271.15 382.65C269.038 382.525 267.25 382.15 267.25 382.15C267.25 382.15 267.375 383.075 267.375 384C267.375 384.925 267.25 385.85 267.25 385.85C267.25 385.85 269.038 385.475 271.15 385.35C271.025 387.462 270.65 389.25 270.65 389.25C270.65 389.25 271.575 389.125 272.5 389.125C273.425 389.125 274.35 389.25 274.35 389.25C274.35 389.25 273.975 387.462 273.85 385.35C275.962 385.475 277.75 385.85 277.75 385.85C277.75 385.85 277.625 384.625 277.625 384C277.625 383.388 277.75 382.15 277.75 382.15C277.75 382.15 275.962 382.525 273.85 382.65V382.638Z" fill="#FF0000"/>
</g>
<rect x="209" y="335.5" width="81" height="61" rx="14.5" stroke="black" stroke-opacity="0.1" shape-rendering="crispEdges"/>
</g>
<g filter="url(#filter14_d_6_5298)">
<g clip-path="url(#clip14_6_5298)">
<path d="M360.5 336H440.5V396H360.5V336Z" fill="#006B3F"/>
<path d="M360.5 336H440.5V376H360.5V336Z" fill="#FCD116"/>
<path d="M360.5 336H440.5V356H360.5V336Z" fill="#CE1126"/>
<path d="M400.5 356L407 376L389.987 363.638H411L394 376L400.5 356Z" fill="black"/>
</g>
<rect x="360" y="335.5" width="81" height="61" rx="14.5" stroke="black" stroke-opacity="0.1" shape-rendering="crispEdges"/>
</g>
<g filter="url(#filter15_d_6_5298)">
<g clip-path="url(#clip15_6_5298)">
<path d="M511.5 376H591.5V396H511.5V376Z" fill="#FFCE00"/>
<path d="M511.5 336H591.5V356H511.5V336Z" fill="black"/>
<path d="M511.5 356H591.5V376H511.5V356Z" fill="#DD0000"/>
</g>
<rect x="511" y="335.5" width="81" height="61" rx="14.5" stroke="black" stroke-opacity="0.1" shape-rendering="crispEdges"/>
</g>
<g filter="url(#filter16_d_6_5298)">
<g clip-path="url(#clip16_6_5298)">
<path d="M58.5 467H138.5V527H58.5V467Z" fill="#DA000C"/>
<path d="M58.5 467H138.5V507.2H58.5V467Z" fill="white"/>
<path d="M84.5781 494.258H99.5781V504.57H84.5781V494.258Z" fill="black"/>
<path d="M92.3594 503.07H83.2187L81.1797 504.406V505.813H92.3594M88.5391 497.141C89.8516 497.141 90.9297 498.242 90.9297 499.602V503.047H92.6406V489.922H83.1953V503.047H86.1484V499.602C86.1484 498.289 87.2031 497.141 88.5391 497.141Z" fill="#DA000C"/>
<path d="M92.3594 503.07H83.2187L81.1797 504.406V505.813H92.3594M88.5391 497.141C89.8516 497.141 90.9297 498.242 90.9297 499.602V503.047H92.6406V489.922H83.1953V503.047H86.1484V499.602C86.1484 498.289 87.2031 497.141 88.5391 497.141Z" stroke="black" stroke-width="0.234375" stroke-linecap="square"/>
<path d="M86.4297 481.062H90.7891V489.031H86.4297V481.062Z" fill="black"/>
<path d="M90.7656 487.789H86.9688V486.43H84.1797V487.789H82.3047V486.43H81.1562V488.867H90.7656M82.2813 488.867H90.4844V489.922H82.2813V488.867ZM85.5625 478.156V486.453H86.9688V484.18C86.9688 483.336 87.5547 482.633 88.3984 482.586H88.4922C88.7015 482.586 88.9087 482.627 89.1021 482.707C89.2955 482.787 89.4711 482.905 89.6191 483.053C89.7671 483.201 89.8845 483.376 89.9646 483.57C90.0447 483.763 90.0859 483.97 90.0859 484.18V486.453H91.4219V478.156H85.5625ZM85.0234 477.031V478.156H91.8906V477.031H85.0234ZM84.1563 474.898V477.031H92.3594V474.898H91.1172V476H89.5703V474.898H87.2266V476H85.7031V474.898H84.1563ZM81.1562 504.406H92.4062H81.1562ZM99.6719 503.75H92.0781L89.7813 504.852V506.492H99.6719" fill="#DA000C"/>
<path d="M90.7656 487.789H86.9688V486.43H84.1797V487.789H82.3047V486.43H81.1562V488.867H90.7656M81.1562 504.406H92.4062M99.6719 503.75H92.0781L89.7813 504.852V506.492H99.6719M82.2813 488.867H90.4844V489.922H82.2813V488.867ZM85.5625 478.156V486.453H86.9688V484.18C86.9688 483.336 87.5547 482.633 88.3984 482.586H88.4922C88.7015 482.586 88.9087 482.627 89.1021 482.707C89.2955 482.787 89.4711 482.905 89.6191 483.053C89.7671 483.201 89.8845 483.376 89.9646 483.57C90.0447 483.763 90.0859 483.97 90.0859 484.18V486.453H91.4219V478.156H85.5625ZM85.0234 477.031V478.156H91.8906V477.031H85.0234ZM84.1563 474.898V477.031H92.3594V474.898H91.1172V476H89.5703V474.898H87.2266V476H85.7031V474.898H84.1563Z" stroke="black" stroke-width="0.234375" stroke-linecap="square"/>
<path d="M89.7812 504.852H99.9062H89.7812Z" fill="#DA000C"/>
<path d="M89.7812 504.852H99.9062" stroke="black" stroke-width="0.234375"/>
<path d="M112.422 494.258H97.4219V504.57H112.422V494.258Z" fill="black"/>
<path d="M104.641 503.07H113.781L115.82 504.406V505.813H104.641M108.461 497.141C107.148 497.141 106.07 498.242 106.07 499.602V503.047H104.359V489.922H113.805V503.047H110.852V499.602C110.852 498.289 109.797 497.141 108.461 497.141Z" fill="#DA000C"/>
<path d="M104.641 503.07H113.781L115.82 504.406V505.813H104.641M108.461 497.141C107.148 497.141 106.07 498.242 106.07 499.602V503.047H104.359V489.922H113.805V503.047H110.852V499.602C110.852 498.289 109.797 497.141 108.461 497.141Z" stroke="black" stroke-width="0.234375" stroke-linecap="square"/>
<path d="M110.57 481.062H106.211V489.031H110.57V481.062Z" fill="black"/>
<path d="M106.234 487.789H110.031V486.43H112.82V487.789H114.695V486.43H115.844V488.867H106.234M114.719 488.867H106.516V489.922H114.719V488.867ZM111.437 478.156V486.453H110.031V484.18C110.031 483.336 109.445 482.633 108.602 482.586H108.508C108.299 482.586 108.091 482.627 107.898 482.707C107.705 482.787 107.529 482.905 107.381 483.053C107.233 483.201 107.115 483.376 107.035 483.57C106.955 483.763 106.914 483.97 106.914 484.18V486.453H105.578V478.156H111.437ZM111.977 477.031V478.156H105.109V477.031H111.977ZM112.844 474.898V477.031H104.641V474.898H105.883V476H107.43V474.898H109.773V476H111.297V474.898H112.844ZM115.844 504.406H104.594H115.844ZM97.3281 503.75H104.922L107.219 504.852V506.492H97.3281" fill="#DA000C"/>
<path d="M106.234 487.789H110.031V486.43H112.82V487.789H114.695V486.43H115.844V488.867H106.234M115.844 504.406H104.594M97.3281 503.75H104.922L107.219 504.852V506.492H97.3281M114.719 488.867H106.516V489.922H114.719V488.867ZM111.437 478.156V486.453H110.031V484.18C110.031 483.336 109.445 482.633 108.602 482.586H108.508C108.299 482.586 108.091 482.627 107.898 482.707C107.705 482.787 107.529 482.905 107.381 483.053C107.233 483.201 107.115 483.376 107.035 483.57C106.955 483.763 106.914 483.97 106.914 484.18V486.453H105.578V478.156H111.437ZM111.977 477.031V478.156H105.109V477.031H111.977ZM112.844 474.898V477.031H104.641V474.898H105.883V476H107.43V474.898H109.773V476H111.297V474.898H112.844Z" stroke="black" stroke-width="0.234375" stroke-linecap="square"/>
<path d="M107.219 504.852H97.0938H107.219Z" fill="#DA000C"/>
<path d="M107.219 504.852H97.0938" stroke="black" stroke-width="0.234375"/>
<path d="M102.555 502.156C101.922 502.391 101.383 502.719 100.797 503.047C100.068 503.463 99.3707 503.933 98.7111 504.453C98.4767 504.617 98.2424 504.781 98.0783 505.016C97.8439 505.203 97.6095 505.484 97.6564 505.836C97.6564 505.977 97.8439 505.648 97.9846 505.625C98.2071 505.506 98.4656 505.473 98.7111 505.531C99.0158 505.203 99.4142 504.992 99.7424 504.734C100.698 504.043 101.718 503.446 102.789 502.953L102.555 502.156Z" fill="#F8D80E" stroke="black" stroke-width="0.1875" stroke-linecap="round"/>
<path d="M99.5312 503.891V504.805V503.891ZM100.094 503.492V504.406V503.492ZM100.656 503.141V504.031V503.141ZM101.242 502.789V503.727V502.789Z" fill="#F8D80E"/>
<path d="M99.5312 503.891V504.805M100.094 503.492V504.406M100.656 503.141V504.031M101.242 502.789V503.727" stroke="black" stroke-width="0.234375" stroke-linecap="round"/>
<path d="M94.4922 502.203L94.2109 502.977C95.5061 503.473 96.747 504.102 97.9141 504.852C98.3125 505.133 98.7344 505.391 99.0391 505.766C99.1094 505.953 98.9219 506.117 98.7344 506.047C98.5703 506 98.3828 505.93 98.2188 506.047C97.9609 506.164 97.7266 506.563 98.1016 506.68C98.6641 507.055 99.5313 506.891 99.7891 506.258C99.9297 505.93 99.9531 505.508 99.6719 505.227C99.2031 504.688 98.5469 504.289 97.9375 503.891C96.8432 503.224 95.6899 502.659 94.4922 502.203Z" fill="#F8D80E" stroke="black" stroke-width="0.1875" stroke-linecap="round"/>
<path d="M98.0313 504.031L97.9609 504.828L98.0313 504.031ZM98.6875 504.43L98.5 505.203L98.6875 504.43ZM99.3906 504.969L98.9688 505.578L99.3906 504.969ZM99.6016 506.422L98.9922 506.094L99.6016 506.422ZM99.7891 505.766L99.0859 505.836L99.7891 505.766ZM98.8984 506.773L98.8516 506.164L98.8984 506.773ZM98.6172 506.094L98.0547 506.516L98.6172 506.094ZM95.8516 502.836V503.563V502.836ZM97.3281 503.633V504.453V503.633ZM96.5781 503.234V504.008V503.234Z" fill="#F8D80E"/>
<path d="M98.0313 504.031L97.9609 504.828M98.6875 504.43L98.5 505.203M99.3906 504.969L98.9688 505.578M99.6016 506.422L98.9922 506.094M99.7891 505.766L99.0859 505.836M98.8984 506.773L98.8516 506.164M98.6172 506.094L98.0547 506.516M95.8516 502.836V503.563M97.3281 503.633V504.453M96.5781 503.234V504.008" stroke="black" stroke-width="0.234375" stroke-linecap="round"/>
<path d="M93.7656 520.344V522.219H94.9375V521.281H96.5547V522.219H97.8203V520.344H93.7656ZM93.7656 522.922V524.797H97.7969V522.922H96.5313V523.859H94.9141V522.922H93.7656Z" fill="#F8D80E" stroke="black" stroke-width="0.234375"/>
<path d="M97.7969 512.398H98.9688V525.992H97.7969V512.398Z" fill="#F8D80E" stroke="black" stroke-width="0.234375"/>
<path d="M97.7969 513.57H98.9687V525.289H97.7969V513.57ZM98.4062 509.047L100.891 510.5L98.4062 511.953L95.8984 510.5L98.4062 509.047ZM95.0547 509.984H94.4219V511.016H95.0547L98.4062 512.961L101.734 511.016H102.391V509.984H101.734L98.4062 508.039L95.0547 509.984Z" fill="#F8D80E" stroke="black" stroke-width="0.234375"/>
<path d="M98.3359 505.508C98.0631 505.563 97.819 505.714 97.6472 505.933C97.4755 506.152 97.3873 506.425 97.3984 506.703V509.328C97.4199 509.607 97.5404 509.869 97.7382 510.066C97.9359 510.264 98.1977 510.385 98.4765 510.406C98.7084 510.424 98.9402 510.37 99.141 510.253C99.3419 510.136 99.5025 509.96 99.6015 509.75L99.2031 509.516C99.1478 509.653 99.0492 509.768 98.9223 509.845C98.7954 509.921 98.6471 509.953 98.5 509.937C98.125 509.937 97.8203 509.563 97.8672 509.211V506.586C97.8849 506.414 97.9675 506.255 98.0981 506.142C98.2287 506.029 98.3976 505.97 98.5703 505.977C98.7109 505.93 98.9218 506.141 99.0156 505.977C99.1562 505.766 98.9218 505.625 98.7812 505.508H98.3359ZM99.6953 506.422C99.5807 506.582 99.4276 506.711 99.25 506.797V508.555L99.7187 508.812V506.422H99.6953Z" fill="#F8D80E" stroke="black" stroke-width="0.234375"/>
<path d="M94.9375 476H101.805V488.469H94.9375V476Z" fill="black"/>
<path d="M94.4688 476V486.43H96.6484V483.336C96.6484 482.633 97.1172 481.625 98.5 481.625C99.8828 481.625 100.375 482.633 100.375 483.336V486.453H102.531V476H94.4688ZM98.1719 477.172H98.8281V480.734H98.1719V477.172ZM96.2266 477.875H96.9297V480.477H96.2266V477.875ZM100.094 477.875H100.773V480.477H100.07L100.094 477.875ZM93.7188 474.5V475.977H103.281V474.5H93.7188ZM92.8281 472.766V474.5H104.195V472.766H102.766V473.703H101.125V472.766H99.2969V473.703H97.7031V472.766H95.8516V473.703H94.2812V472.766H92.8281ZM90.7188 489.922V491H106.305V489.922H90.7188Z" fill="#DA000C" stroke="black" stroke-width="0.234375"/>
<path d="M90.0625 486.43V489.945H106.938V486.43H105.344V487.789H103.188V486.43H100.328V487.789H96.625V486.43H93.7656V487.789H91.6563V486.43H90.0625Z" fill="#DA000C" stroke="black" stroke-width="0.234375"/>
<path d="M92.1016 491V503.75H95.1016V498.969C95.1016 496.742 96.6016 495.688 98.5 495.688C100.328 495.688 101.898 496.742 101.898 498.969V503.75H104.898V491H92.1016Z" fill="#DA000C" stroke="black" stroke-width="0.234375" stroke-linejoin="round"/>
</g>
<rect x="58" y="466.5" width="81" height="61" rx="14.5" stroke="black" stroke-opacity="0.1" shape-rendering="crispEdges"/>
</g>
<g filter="url(#filter17_d_6_5298)">
<g clip-path="url(#clip17_6_5298)">
<path d="M209.5 467H289.5V487H209.5V467Z" fill="#FF9933"/>
<path d="M209.5 487H289.5V507H209.5V487Z" fill="white"/>
<path d="M209.5 507H289.5V527H209.5V507Z" fill="#128807"/>
<path d="M249.5 505C253.918 505 257.5 501.418 257.5 497C257.5 492.582 253.918 489 249.5 489C245.082 489 241.5 492.582 241.5 497C241.5 501.418 245.082 505 249.5 505Z" fill="#000088"/>
<path d="M249.5 504C253.366 504 256.5 500.866 256.5 497C256.5 493.134 253.366 490 249.5 490C245.634 490 242.5 493.134 242.5 497C242.5 500.866 245.634 504 249.5 504Z" fill="white"/>
<path d="M249.5 498.4C250.273 498.4 250.9 497.773 250.9 497C250.9 496.227 250.273 495.6 249.5 495.6C248.726 495.6 248.1 496.227 248.1 497C248.1 497.773 248.726 498.4 249.5 498.4Z" fill="#000088"/>
<path d="M256.393 498.273C256.59 498.299 256.771 498.16 256.797 497.963C256.823 497.766 256.684 497.585 256.487 497.559C256.29 497.533 256.109 497.672 256.083 497.869C256.057 498.066 256.196 498.247 256.393 498.273Z" fill="#000088"/>
<path d="M249.5 504L249.74 499.8L249.5 497.8L249.26 499.8L249.5 504Z" fill="#000088"/>
<path d="M255.828 500.014C256.011 500.09 256.222 500.003 256.298 499.819C256.374 499.635 256.287 499.425 256.103 499.349C255.919 499.273 255.709 499.36 255.633 499.543C255.557 499.727 255.644 499.938 255.828 500.014Z" fill="#000088"/>
<path d="M247.688 503.761L249.007 499.767L249.292 497.773L248.543 499.642L247.688 503.761Z" fill="#000088"/>
<path d="M254.832 501.549C254.989 501.67 255.215 501.64 255.336 501.483C255.457 501.325 255.428 501.099 255.27 500.978C255.112 500.857 254.886 500.887 254.765 501.044C254.644 501.202 254.674 501.428 254.832 501.549Z" fill="#000088"/>
<path d="M245.999 503.062L248.307 499.545L249.099 497.693L247.892 499.305L245.999 503.062Z" fill="#000088"/>
<path d="M253.472 502.774C253.593 502.932 253.819 502.962 253.977 502.841C254.135 502.72 254.164 502.494 254.043 502.336C253.922 502.178 253.696 502.149 253.539 502.27C253.381 502.391 253.351 502.617 253.472 502.774Z" fill="#000088"/>
<path d="M244.549 501.95L247.689 499.15L248.933 497.566L247.349 498.81L244.549 501.95Z" fill="#000088"/>
<path d="M251.844 503.606C251.92 503.79 252.13 503.877 252.314 503.801C252.498 503.725 252.585 503.514 252.509 503.331C252.433 503.147 252.222 503.06 252.038 503.136C251.855 503.212 251.768 503.422 251.844 503.606Z" fill="#000088"/>
<path d="M243.438 500.5L247.195 498.608L248.808 497.4L246.955 498.192L243.438 500.5Z" fill="#000088"/>
<path d="M250.055 503.988C250.081 504.185 250.262 504.324 250.459 504.298C250.656 504.272 250.795 504.091 250.769 503.894C250.743 503.697 250.562 503.558 250.365 503.584C250.168 503.61 250.029 503.791 250.055 503.988Z" fill="#000088"/>
<path d="M242.739 498.812L246.858 497.957L248.728 497.207L246.734 497.493L242.739 498.812Z" fill="#000088"/>
<path d="M248.227 503.893C248.201 504.09 248.34 504.271 248.537 504.297C248.735 504.323 248.915 504.184 248.941 503.987C248.967 503.79 248.828 503.609 248.631 503.583C248.434 503.557 248.253 503.696 248.227 503.893Z" fill="#000088"/>
<path d="M242.5 497L246.7 497.24L248.7 497L246.7 496.76L242.5 497Z" fill="#000088"/>
<path d="M246.486 503.329C246.41 503.512 246.497 503.723 246.681 503.799C246.865 503.875 247.075 503.788 247.151 503.604C247.227 503.42 247.14 503.21 246.956 503.134C246.773 503.058 246.562 503.145 246.486 503.329Z" fill="#000088"/>
<path d="M242.739 495.188L246.734 496.507L248.728 496.793L246.858 496.043L242.739 495.188Z" fill="#000088"/>
<path d="M244.951 502.333C244.83 502.491 244.86 502.717 245.017 502.838C245.175 502.959 245.401 502.929 245.522 502.771C245.643 502.614 245.613 502.388 245.456 502.267C245.298 502.145 245.072 502.175 244.951 502.333Z" fill="#000088"/>
<path d="M243.437 493.5L246.955 495.808L248.807 496.6L247.195 495.392L243.437 493.5Z" fill="#000088"/>
<path d="M243.725 500.974C243.568 501.095 243.538 501.321 243.659 501.479C243.78 501.636 244.006 501.666 244.164 501.545C244.321 501.424 244.351 501.198 244.23 501.04C244.109 500.883 243.883 500.853 243.725 500.974Z" fill="#000088"/>
<path d="M244.55 492.05L247.35 495.19L248.934 496.434L247.689 494.85L244.55 492.05Z" fill="#000088"/>
<path d="M242.894 499.344C242.71 499.42 242.623 499.631 242.699 499.814C242.775 499.998 242.986 500.085 243.169 500.009C243.353 499.933 243.44 499.722 243.364 499.539C243.288 499.355 243.078 499.268 242.894 499.344Z" fill="#000088"/>
<path d="M246 490.938L247.892 494.695L249.1 496.307L248.308 494.455L246 490.938Z" fill="#000088"/>
<path d="M242.512 497.554C242.315 497.58 242.176 497.761 242.202 497.958C242.228 498.155 242.409 498.294 242.606 498.268C242.803 498.242 242.942 498.061 242.916 497.864C242.89 497.667 242.709 497.528 242.512 497.554Z" fill="#000088"/>
<path d="M247.688 490.238L248.543 494.357L249.293 496.227L249.007 494.233L247.688 490.238Z" fill="#000088"/>
<path d="M242.606 495.727C242.409 495.701 242.228 495.84 242.202 496.037C242.176 496.234 242.315 496.415 242.512 496.441C242.709 496.467 242.89 496.328 242.916 496.131C242.942 495.934 242.803 495.753 242.606 495.727Z" fill="#000088"/>
<path d="M249.499 490L249.259 494.2L249.499 496.2L249.739 494.2L249.499 490Z" fill="#000088"/>
<path d="M243.171 493.986C242.988 493.91 242.777 493.997 242.701 494.181C242.625 494.365 242.712 494.575 242.896 494.651C243.08 494.727 243.29 494.64 243.366 494.457C243.442 494.273 243.355 494.062 243.171 493.986Z" fill="#000088"/>
<path d="M251.311 490.239L249.992 494.233L249.707 496.227L250.456 494.358L251.311 490.239Z" fill="#000088"/>
<path d="M244.167 492.451C244.01 492.33 243.784 492.36 243.663 492.517C243.542 492.675 243.571 492.901 243.729 493.022C243.887 493.143 244.113 493.113 244.234 492.956C244.355 492.798 244.325 492.572 244.167 492.451Z" fill="#000088"/>
<path d="M253 490.938L250.692 494.455L249.9 496.307L251.107 494.695L253 490.938Z" fill="#000088"/>
<path d="M245.527 491.226C245.406 491.068 245.18 491.038 245.022 491.159C244.864 491.28 244.835 491.506 244.956 491.664C245.077 491.822 245.303 491.851 245.46 491.73C245.618 491.609 245.648 491.383 245.527 491.226Z" fill="#000088"/>
<path d="M254.45 492.05L251.31 494.85L250.066 496.434L251.65 495.19L254.45 492.05Z" fill="#000088"/>
<path d="M247.156 490.394C247.08 490.21 246.87 490.123 246.686 490.199C246.502 490.275 246.415 490.486 246.491 490.669C246.567 490.853 246.778 490.94 246.962 490.864C247.145 490.788 247.232 490.578 247.156 490.394Z" fill="#000088"/>
<path d="M255.562 493.5L251.805 495.392L250.192 496.6L252.045 495.808L255.562 493.5Z" fill="#000088"/>
<path d="M248.945 490.012C248.919 489.815 248.738 489.676 248.541 489.702C248.344 489.728 248.205 489.909 248.231 490.106C248.257 490.303 248.438 490.442 248.635 490.416C248.832 490.39 248.971 490.209 248.945 490.012Z" fill="#000088"/>
<path d="M256.261 495.188L252.142 496.043L250.272 496.793L252.266 496.507L256.261 495.188Z" fill="#000088"/>
<path d="M250.773 490.107C250.799 489.91 250.66 489.729 250.463 489.703C250.265 489.677 250.085 489.816 250.059 490.013C250.033 490.21 250.172 490.391 250.369 490.417C250.566 490.443 250.747 490.304 250.773 490.107Z" fill="#000088"/>
<path d="M256.5 497L252.3 496.76L250.3 497L252.3 497.24L256.5 497Z" fill="#000088"/>
<path d="M252.514 490.671C252.59 490.488 252.503 490.277 252.319 490.201C252.135 490.125 251.925 490.212 251.849 490.396C251.773 490.58 251.86 490.79 252.044 490.866C252.227 490.942 252.438 490.855 252.514 490.671Z" fill="#000088"/>
<path d="M256.261 498.812L252.266 497.493L250.272 497.207L252.142 497.957L256.261 498.812Z" fill="#000088"/>
<path d="M254.049 491.667C254.17 491.509 254.14 491.283 253.983 491.162C253.825 491.041 253.599 491.071 253.478 491.229C253.357 491.386 253.387 491.612 253.544 491.733C253.702 491.855 253.928 491.825 254.049 491.667Z" fill="#000088"/>
<path d="M255.563 500.5L252.045 498.192L250.193 497.4L251.805 498.608L255.563 500.5Z" fill="#000088"/>
<path d="M255.275 493.026C255.432 492.905 255.462 492.679 255.341 492.521C255.22 492.364 254.994 492.334 254.836 492.455C254.679 492.576 254.649 492.802 254.77 492.96C254.891 493.117 255.117 493.147 255.275 493.026Z" fill="#000088"/>
<path d="M254.45 501.95L251.65 498.81L250.066 497.566L251.311 499.15L254.45 501.95Z" fill="#000088"/>
<path d="M256.106 494.656C256.29 494.58 256.377 494.369 256.301 494.186C256.225 494.002 256.014 493.915 255.831 493.991C255.647 494.067 255.56 494.278 255.636 494.461C255.712 494.645 255.922 494.732 256.106 494.656Z" fill="#000088"/>
<path d="M253 503.062L251.108 499.305L249.9 497.693L250.692 499.545L253 503.062Z" fill="#000088"/>
<path d="M256.488 496.446C256.685 496.42 256.824 496.239 256.798 496.042C256.772 495.845 256.591 495.706 256.394 495.732C256.197 495.758 256.058 495.939 256.084 496.136C256.11 496.333 256.291 496.472 256.488 496.446Z" fill="#000088"/>
<path d="M251.312 503.762L250.457 499.643L249.707 497.773L249.993 499.767L251.312 503.762Z" fill="#000088"/>
</g>
<rect x="209" y="466.5" width="81" height="61" rx="14.5" stroke="black" stroke-opacity="0.1" shape-rendering="crispEdges"/>
</g>
<g filter="url(#filter18_d_6_5298)">
<g clip-path="url(#clip18_6_5298)">
<path d="M360.5 467H440.5V497H360.5V467Z" fill="#E70011"/>
<path d="M360.5 497H440.5V527H360.5V497Z" fill="white"/>
</g>
<rect x="360" y="466.5" width="81" height="61" rx="14.5" stroke="black" stroke-opacity="0.1" shape-rendering="crispEdges"/>
</g>
<g filter="url(#filter19_d_6_5298)">
<g clip-path="url(#clip19_6_5298)">
<mask id="mask1_6_5298" style="mask-type:luminance" maskUnits="userSpaceOnUse" x="511" y="467" width="81" height="60">
<path d="M511.5 467H591.5V527H511.5V467Z" fill="white"/>
</mask>
<g mask="url(#mask1_6_5298)">
<path fill-rule="evenodd" clip-rule="evenodd" d="M511.5 467H594.838V527H511.5V467Z" fill="#003897"/>
<path fill-rule="evenodd" clip-rule="evenodd" d="M511.5 490.337H534.837V467H548.162V490.337H594.838V503.662H548.162V527H534.837V503.662H511.5V490.337Z" fill="white"/>
<path fill-rule="evenodd" clip-rule="evenodd" d="M511.5 493.663H538.163V467H544.838V493.663H594.838V500.338H544.838V527H538.163V500.338H511.5V493.663Z" fill="#D72828"/>
</g>
</g>
<rect x="511" y="466.5" width="81" height="61" rx="14.5" stroke="black" stroke-opacity="0.1" shape-rendering="crispEdges"/>
</g>
<defs>
<filter id="filter0_d_6_5298" x="55.5" y="-58" width="86" height="66" filterUnits="userSpaceOnUse" color-interpolation-filters="sRGB">
<feFlood flood-opacity="0" result="BackgroundImageFix"/>
<feColorMatrix in="SourceAlpha" type="matrix" values="0 0 0 0 0 0 0 0 0 0 0 0 0 0 0 0 0 0 127 0" result="hardAlpha"/>
<feOffset dy="2"/>
<feGaussianBlur stdDeviation="1"/>
<feComposite in2="hardAlpha" operator="out"/>
<feColorMatrix type="matrix" values="0 0 0 0 0.28099 0 0 0 0 0.313411 0 0 0 0 0.345833 0 0 0 0.08 0"/>
<feBlend mode="normal" in2="BackgroundImageFix" result="effect1_dropShadow_6_5298"/>
<feBlend mode="normal" in="SourceGraphic" in2="effect1_dropShadow_6_5298" result="shape"/>
</filter>
<filter id="filter1_d_6_5298" x="206.5" y="-58" width="86" height="66" filterUnits="userSpaceOnUse" color-interpolation-filters="sRGB">
<feFlood flood-opacity="0" result="BackgroundImageFix"/>
<feColorMatrix in="SourceAlpha" type="matrix" values="0 0 0 0 0 0 0 0 0 0 0 0 0 0 0 0 0 0 127 0" result="hardAlpha"/>
<feOffset dy="2"/>
<feGaussianBlur stdDeviation="1"/>
<feComposite in2="hardAlpha" operator="out"/>
<feColorMatrix type="matrix" values="0 0 0 0 0.28099 0 0 0 0 0.313411 0 0 0 0 0.345833 0 0 0 0.08 0"/>
<feBlend mode="normal" in2="BackgroundImageFix" result="effect1_dropShadow_6_5298"/>
<feBlend mode="normal" in="SourceGraphic" in2="effect1_dropShadow_6_5298" result="shape"/>
</filter>
<filter id="filter2_d_6_5298" x="357.5" y="-58" width="86" height="66" filterUnits="userSpaceOnUse" color-interpolation-filters="sRGB">
<feFlood flood-opacity="0" result="BackgroundImageFix"/>
<feColorMatrix in="SourceAlpha" type="matrix" values="0 0 0 0 0 0 0 0 0 0 0 0 0 0 0 0 0 0 127 0" result="hardAlpha"/>
<feOffset dy="2"/>
<feGaussianBlur stdDeviation="1"/>
<feComposite in2="hardAlpha" operator="out"/>
<feColorMatrix type="matrix" values="0 0 0 0 0.28099 0 0 0 0 0.313411 0 0 0 0 0.345833 0 0 0 0.08 0"/>
<feBlend mode="normal" in2="BackgroundImageFix" result="effect1_dropShadow_6_5298"/>
<feBlend mode="normal" in="SourceGraphic" in2="effect1_dropShadow_6_5298" result="shape"/>
</filter>
<filter id="filter3_d_6_5298" x="508.5" y="-58" width="86" height="66" filterUnits="userSpaceOnUse" color-interpolation-filters="sRGB">
<feFlood flood-opacity="0" result="BackgroundImageFix"/>
<feColorMatrix in="SourceAlpha" type="matrix" values="0 0 0 0 0 0 0 0 0 0 0 0 0 0 0 0 0 0 127 0" result="hardAlpha"/>
<feOffset dy="2"/>
<feGaussianBlur stdDeviation="1"/>
<feComposite in2="hardAlpha" operator="out"/>
<feColorMatrix type="matrix" values="0 0 0 0 0.28099 0 0 0 0 0.313411 0 0 0 0 0.345833 0 0 0 0.08 0"/>
<feBlend mode="normal" in2="BackgroundImageFix" result="effect1_dropShadow_6_5298"/>
<feBlend mode="normal" in="SourceGraphic" in2="effect1_dropShadow_6_5298" result="shape"/>
</filter>
<filter id="filter4_d_6_5298" x="55.5" y="73" width="86" height="66" filterUnits="userSpaceOnUse" color-interpolation-filters="sRGB">
<feFlood flood-opacity="0" result="BackgroundImageFix"/>
<feColorMatrix in="SourceAlpha" type="matrix" values="0 0 0 0 0 0 0 0 0 0 0 0 0 0 0 0 0 0 127 0" result="hardAlpha"/>
<feOffset dy="2"/>
<feGaussianBlur stdDeviation="1"/>
<feComposite in2="hardAlpha" operator="out"/>
<feColorMatrix type="matrix" values="0 0 0 0 0.28099 0 0 0 0 0.313411 0 0 0 0 0.345833 0 0 0 0.08 0"/>
<feBlend mode="normal" in2="BackgroundImageFix" result="effect1_dropShadow_6_5298"/>
<feBlend mode="normal" in="SourceGraphic" in2="effect1_dropShadow_6_5298" result="shape"/>
</filter>
<filter id="filter5_d_6_5298" x="206.5" y="73" width="86" height="66" filterUnits="userSpaceOnUse" color-interpolation-filters="sRGB">
<feFlood flood-opacity="0" result="BackgroundImageFix"/>
<feColorMatrix in="SourceAlpha" type="matrix" values="0 0 0 0 0 0 0 0 0 0 0 0 0 0 0 0 0 0 127 0" result="hardAlpha"/>
<feOffset dy="2"/>
<feGaussianBlur stdDeviation="1"/>
<feComposite in2="hardAlpha" operator="out"/>
<feColorMatrix type="matrix" values="0 0 0 0 0.28099 0 0 0 0 0.313411 0 0 0 0 0.345833 0 0 0 0.08 0"/>
<feBlend mode="normal" in2="BackgroundImageFix" result="effect1_dropShadow_6_5298"/>
<feBlend mode="normal" in="SourceGraphic" in2="effect1_dropShadow_6_5298" result="shape"/>
</filter>
<filter id="filter6_d_6_5298" x="357.5" y="73" width="86" height="66" filterUnits="userSpaceOnUse" color-interpolation-filters="sRGB">
<feFlood flood-opacity="0" result="BackgroundImageFix"/>
<feColorMatrix in="SourceAlpha" type="matrix" values="0 0 0 0 0 0 0 0 0 0 0 0 0 0 0 0 0 0 127 0" result="hardAlpha"/>
<feOffset dy="2"/>
<feGaussianBlur stdDeviation="1"/>
<feComposite in2="hardAlpha" operator="out"/>
<feColorMatrix type="matrix" values="0 0 0 0 0.28099 0 0 0 0 0.313411 0 0 0 0 0.345833 0 0 0 0.08 0"/>
<feBlend mode="normal" in2="BackgroundImageFix" result="effect1_dropShadow_6_5298"/>
<feBlend mode="normal" in="SourceGraphic" in2="effect1_dropShadow_6_5298" result="shape"/>
</filter>
<filter id="filter7_d_6_5298" x="508.5" y="73" width="86" height="66" filterUnits="userSpaceOnUse" color-interpolation-filters="sRGB">
<feFlood flood-opacity="0" result="BackgroundImageFix"/>
<feColorMatrix in="SourceAlpha" type="matrix" values="0 0 0 0 0 0 0 0 0 0 0 0 0 0 0 0 0 0 127 0" result="hardAlpha"/>
<feOffset dy="2"/>
<feGaussianBlur stdDeviation="1"/>
<feComposite in2="hardAlpha" operator="out"/>
<feColorMatrix type="matrix" values="0 0 0 0 0.28099 0 0 0 0 0.313411 0 0 0 0 0.345833 0 0 0 0.08 0"/>
<feBlend mode="normal" in2="BackgroundImageFix" result="effect1_dropShadow_6_5298"/>
<feBlend mode="normal" in="SourceGraphic" in2="effect1_dropShadow_6_5298" result="shape"/>
</filter>
<filter id="filter8_d_6_5298" x="55.5" y="204" width="86" height="66" filterUnits="userSpaceOnUse" color-interpolation-filters="sRGB">
<feFlood flood-opacity="0" result="BackgroundImageFix"/>
<feColorMatrix in="SourceAlpha" type="matrix" values="0 0 0 0 0 0 0 0 0 0 0 0 0 0 0 0 0 0 127 0" result="hardAlpha"/>
<feOffset dy="2"/>
<feGaussianBlur stdDeviation="1"/>
<feComposite in2="hardAlpha" operator="out"/>
<feColorMatrix type="matrix" values="0 0 0 0 0.28099 0 0 0 0 0.313411 0 0 0 0 0.345833 0 0 0 0.08 0"/>
<feBlend mode="normal" in2="BackgroundImageFix" result="effect1_dropShadow_6_5298"/>
<feBlend mode="normal" in="SourceGraphic" in2="effect1_dropShadow_6_5298" result="shape"/>
</filter>
<filter id="filter9_d_6_5298" x="206.5" y="204" width="86" height="66" filterUnits="userSpaceOnUse" color-interpolation-filters="sRGB">
<feFlood flood-opacity="0" result="BackgroundImageFix"/>
<feColorMatrix in="SourceAlpha" type="matrix" values="0 0 0 0 0 0 0 0 0 0 0 0 0 0 0 0 0 0 127 0" result="hardAlpha"/>
<feOffset dy="2"/>
<feGaussianBlur stdDeviation="1"/>
<feComposite in2="hardAlpha" operator="out"/>
<feColorMatrix type="matrix" values="0 0 0 0 0.28099 0 0 0 0 0.313411 0 0 0 0 0.345833 0 0 0 0.08 0"/>
<feBlend mode="normal" in2="BackgroundImageFix" result="effect1_dropShadow_6_5298"/>
<feBlend mode="normal" in="SourceGraphic" in2="effect1_dropShadow_6_5298" result="shape"/>
</filter>
<filter id="filter10_d_6_5298" x="357.5" y="204" width="86" height="66" filterUnits="userSpaceOnUse" color-interpolation-filters="sRGB">
<feFlood flood-opacity="0" result="BackgroundImageFix"/>
<feColorMatrix in="SourceAlpha" type="matrix" values="0 0 0 0 0 0 0 0 0 0 0 0 0 0 0 0 0 0 127 0" result="hardAlpha"/>
<feOffset dy="2"/>
<feGaussianBlur stdDeviation="1"/>
<feComposite in2="hardAlpha" operator="out"/>
<feColorMatrix type="matrix" values="0 0 0 0 0.28099 0 0 0 0 0.313411 0 0 0 0 0.345833 0 0 0 0.08 0"/>
<feBlend mode="normal" in2="BackgroundImageFix" result="effect1_dropShadow_6_5298"/>
<feBlend mode="normal" in="SourceGraphic" in2="effect1_dropShadow_6_5298" result="shape"/>
</filter>
<filter id="filter11_d_6_5298" x="508.5" y="204" width="86" height="66" filterUnits="userSpaceOnUse" color-interpolation-filters="sRGB">
<feFlood flood-opacity="0" result="BackgroundImageFix"/>
<feColorMatrix in="SourceAlpha" type="matrix" values="0 0 0 0 0 0 0 0 0 0 0 0 0 0 0 0 0 0 127 0" result="hardAlpha"/>
<feOffset dy="2"/>
<feGaussianBlur stdDeviation="1"/>
<feComposite in2="hardAlpha" operator="out"/>
<feColorMatrix type="matrix" values="0 0 0 0 0.28099 0 0 0 0 0.313411 0 0 0 0 0.345833 0 0 0 0.08 0"/>
<feBlend mode="normal" in2="BackgroundImageFix" result="effect1_dropShadow_6_5298"/>
<feBlend mode="normal" in="SourceGraphic" in2="effect1_dropShadow_6_5298" result="shape"/>
</filter>
<filter id="filter12_d_6_5298" x="55.5" y="335" width="86" height="66" filterUnits="userSpaceOnUse" color-interpolation-filters="sRGB">
<feFlood flood-opacity="0" result="BackgroundImageFix"/>
<feColorMatrix in="SourceAlpha" type="matrix" values="0 0 0 0 0 0 0 0 0 0 0 0 0 0 0 0 0 0 127 0" result="hardAlpha"/>
<feOffset dy="2"/>
<feGaussianBlur stdDeviation="1"/>
<feComposite in2="hardAlpha" operator="out"/>
<feColorMatrix type="matrix" values="0 0 0 0 0.28099 0 0 0 0 0.313411 0 0 0 0 0.345833 0 0 0 0.08 0"/>
<feBlend mode="normal" in2="BackgroundImageFix" result="effect1_dropShadow_6_5298"/>
<feBlend mode="normal" in="SourceGraphic" in2="effect1_dropShadow_6_5298" result="shape"/>
</filter>
<filter id="filter13_d_6_5298" x="206.5" y="335" width="86" height="66" filterUnits="userSpaceOnUse" color-interpolation-filters="sRGB">
<feFlood flood-opacity="0" result="BackgroundImageFix"/>
<feColorMatrix in="SourceAlpha" type="matrix" values="0 0 0 0 0 0 0 0 0 0 0 0 0 0 0 0 0 0 127 0" result="hardAlpha"/>
<feOffset dy="2"/>
<feGaussianBlur stdDeviation="1"/>
<feComposite in2="hardAlpha" operator="out"/>
<feColorMatrix type="matrix" values="0 0 0 0 0.28099 0 0 0 0 0.313411 0 0 0 0 0.345833 0 0 0 0.08 0"/>
<feBlend mode="normal" in2="BackgroundImageFix" result="effect1_dropShadow_6_5298"/>
<feBlend mode="normal" in="SourceGraphic" in2="effect1_dropShadow_6_5298" result="shape"/>
</filter>
<filter id="filter14_d_6_5298" x="357.5" y="335" width="86" height="66" filterUnits="userSpaceOnUse" color-interpolation-filters="sRGB">
<feFlood flood-opacity="0" result="BackgroundImageFix"/>
<feColorMatrix in="SourceAlpha" type="matrix" values="0 0 0 0 0 0 0 0 0 0 0 0 0 0 0 0 0 0 127 0" result="hardAlpha"/>
<feOffset dy="2"/>
<feGaussianBlur stdDeviation="1"/>
<feComposite in2="hardAlpha" operator="out"/>
<feColorMatrix type="matrix" values="0 0 0 0 0.28099 0 0 0 0 0.313411 0 0 0 0 0.345833 0 0 0 0.08 0"/>
<feBlend mode="normal" in2="BackgroundImageFix" result="effect1_dropShadow_6_5298"/>
<feBlend mode="normal" in="SourceGraphic" in2="effect1_dropShadow_6_5298" result="shape"/>
</filter>
<filter id="filter15_d_6_5298" x="508.5" y="335" width="86" height="66" filterUnits="userSpaceOnUse" color-interpolation-filters="sRGB">
<feFlood flood-opacity="0" result="BackgroundImageFix"/>
<feColorMatrix in="SourceAlpha" type="matrix" values="0 0 0 0 0 0 0 0 0 0 0 0 0 0 0 0 0 0 127 0" result="hardAlpha"/>
<feOffset dy="2"/>
<feGaussianBlur stdDeviation="1"/>
<feComposite in2="hardAlpha" operator="out"/>
<feColorMatrix type="matrix" values="0 0 0 0 0.28099 0 0 0 0 0.313411 0 0 0 0 0.345833 0 0 0 0.08 0"/>
<feBlend mode="normal" in2="BackgroundImageFix" result="effect1_dropShadow_6_5298"/>
<feBlend mode="normal" in="SourceGraphic" in2="effect1_dropShadow_6_5298" result="shape"/>
</filter>
<filter id="filter16_d_6_5298" x="55.5" y="466" width="86" height="66" filterUnits="userSpaceOnUse" color-interpolation-filters="sRGB">
<feFlood flood-opacity="0" result="BackgroundImageFix"/>
<feColorMatrix in="SourceAlpha" type="matrix" values="0 0 0 0 0 0 0 0 0 0 0 0 0 0 0 0 0 0 127 0" result="hardAlpha"/>
<feOffset dy="2"/>
<feGaussianBlur stdDeviation="1"/>
<feComposite in2="hardAlpha" operator="out"/>
<feColorMatrix type="matrix" values="0 0 0 0 0.28099 0 0 0 0 0.313411 0 0 0 0 0.345833 0 0 0 0.08 0"/>
<feBlend mode="normal" in2="BackgroundImageFix" result="effect1_dropShadow_6_5298"/>
<feBlend mode="normal" in="SourceGraphic" in2="effect1_dropShadow_6_5298" result="shape"/>
</filter>
<filter id="filter17_d_6_5298" x="206.5" y="466" width="86" height="66" filterUnits="userSpaceOnUse" color-interpolation-filters="sRGB">
<feFlood flood-opacity="0" result="BackgroundImageFix"/>
<feColorMatrix in="SourceAlpha" type="matrix" values="0 0 0 0 0 0 0 0 0 0 0 0 0 0 0 0 0 0 127 0" result="hardAlpha"/>
<feOffset dy="2"/>
<feGaussianBlur stdDeviation="1"/>
<feComposite in2="hardAlpha" operator="out"/>
<feColorMatrix type="matrix" values="0 0 0 0 0.28099 0 0 0 0 0.313411 0 0 0 0 0.345833 0 0 0 0.08 0"/>
<feBlend mode="normal" in2="BackgroundImageFix" result="effect1_dropShadow_6_5298"/>
<feBlend mode="normal" in="SourceGraphic" in2="effect1_dropShadow_6_5298" result="shape"/>
</filter>
<filter id="filter18_d_6_5298" x="357.5" y="466" width="86" height="66" filterUnits="userSpaceOnUse" color-interpolation-filters="sRGB">
<feFlood flood-opacity="0" result="BackgroundImageFix"/>
<feColorMatrix in="SourceAlpha" type="matrix" values="0 0 0 0 0 0 0 0 0 0 0 0 0 0 0 0 0 0 127 0" result="hardAlpha"/>
<feOffset dy="2"/>
<feGaussianBlur stdDeviation="1"/>
<feComposite in2="hardAlpha" operator="out"/>
<feColorMatrix type="matrix" values="0 0 0 0 0.28099 0 0 0 0 0.313411 0 0 0 0 0.345833 0 0 0 0.08 0"/>
<feBlend mode="normal" in2="BackgroundImageFix" result="effect1_dropShadow_6_5298"/>
<feBlend mode="normal" in="SourceGraphic" in2="effect1_dropShadow_6_5298" result="shape"/>
</filter>
<filter id="filter19_d_6_5298" x="508.5" y="466" width="86" height="66" filterUnits="userSpaceOnUse" color-interpolation-filters="sRGB">
<feFlood flood-opacity="0" result="BackgroundImageFix"/>
<feColorMatrix in="SourceAlpha" type="matrix" values="0 0 0 0 0 0 0 0 0 0 0 0 0 0 0 0 0 0 127 0" result="hardAlpha"/>
<feOffset dy="2"/>
<feGaussianBlur stdDeviation="1"/>
<feComposite in2="hardAlpha" operator="out"/>
<feColorMatrix type="matrix" values="0 0 0 0 0.28099 0 0 0 0 0.313411 0 0 0 0 0.345833 0 0 0 0.08 0"/>
<feBlend mode="normal" in2="BackgroundImageFix" result="effect1_dropShadow_6_5298"/>
<feBlend mode="normal" in="SourceGraphic" in2="effect1_dropShadow_6_5298" result="shape"/>
</filter>
<clipPath id="clip0_6_5298">
<rect x="58.5" y="-57" width="80" height="60" rx="14" fill="white"/>
</clipPath>
<clipPath id="clip1_6_5298">
<rect x="209.5" y="-57" width="80" height="60" rx="14" fill="white"/>
</clipPath>
<clipPath id="clip2_6_5298">
<rect x="360.5" y="-57" width="80" height="60" rx="14" fill="white"/>
</clipPath>
<clipPath id="clip3_6_5298">
<rect x="511.5" y="-57" width="80" height="60" rx="14" fill="white"/>
</clipPath>
<clipPath id="clip4_6_5298">
<rect x="58.5" y="74" width="80" height="60" rx="14" fill="white"/>
</clipPath>
<clipPath id="clip5_6_5298">
<rect x="209.5" y="74" width="80" height="60" rx="14" fill="white"/>
</clipPath>
<clipPath id="clip6_6_5298">
<rect x="360.5" y="74" width="80" height="60" rx="14" fill="white"/>
</clipPath>
<clipPath id="clip7_6_5298">
<rect x="511.5" y="74" width="80" height="60" rx="14" fill="white"/>
</clipPath>
<clipPath id="clip8_6_5298">
<rect x="58.5" y="205" width="80" height="60" rx="14" fill="white"/>
</clipPath>
<clipPath id="clip9_6_5298">
<rect x="209.5" y="205" width="80" height="60" rx="14" fill="white"/>
</clipPath>
<clipPath id="clip10_6_5298">
<rect x="360.5" y="205" width="80" height="60" rx="14" fill="white"/>
</clipPath>
<clipPath id="clip11_6_5298">
<rect x="511.5" y="205" width="80" height="60" rx="14" fill="white"/>
</clipPath>
<clipPath id="clip12_6_5298">
<rect x="58.5" y="336" width="80" height="60" rx="14" fill="white"/>
</clipPath>
<clipPath id="clip13_6_5298">
<rect x="209.5" y="336" width="80" height="60" rx="14" fill="white"/>
</clipPath>
<clipPath id="clip14_6_5298">
<rect x="360.5" y="336" width="80" height="60" rx="14" fill="white"/>
</clipPath>
<clipPath id="clip15_6_5298">
<rect x="511.5" y="336" width="80" height="60" rx="14" fill="white"/>
</clipPath>
<clipPath id="clip16_6_5298">
<rect x="58.5" y="467" width="80" height="60" rx="14" fill="white"/>
</clipPath>
<clipPath id="clip17_6_5298">
<rect x="209.5" y="467" width="80" height="60" rx="14" fill="white"/>
</clipPath>
<clipPath id="clip18_6_5298">
<rect x="360.5" y="467" width="80" height="60" rx="14" fill="white"/>
</clipPath>
<clipPath id="clip19_6_5298">
<rect x="511.5" y="467" width="80" height="60" rx="14" fill="white"/>
</clipPath>
</defs>
</svg>
