<svg width="58" height="38" viewBox="0 0 58 38" fill="none" xmlns="http://www.w3.org/2000/svg">
<path fill-rule="evenodd" clip-rule="evenodd" d="M11.5556 5.34962C6.72858 7.98768 3.45455 13.1115 3.45455 19C3.45455 20.2856 3.61059 21.5347 3.90478 22.7294L5.34588 21.8975C5.88147 21.5883 6.50999 21.4809 7.11785 21.5947L12.5758 22.6161L12.5551 17.979C12.5531 17.5158 12.6752 17.0606 12.9088 16.6607L14.4003 17.5319L14.4413 17.5558M14.4003 17.5319L12.9088 16.6607L15.902 11.5363L11.5556 5.34962M5.12346 26.0148C7.68709 31.0761 12.9384 34.5455 19 34.5455C19.2612 34.5455 19.5209 34.539 19.7787 34.5263C20.7315 34.4794 21.5419 35.2138 21.5888 36.1666C21.6357 37.1194 20.9014 37.9298 19.9486 37.9767C19.6342 37.9922 19.318 38 19 38C8.50659 38 0 29.4934 0 19C0 8.50659 8.50659 0 19 0C24.1705 0 28.8587 2.06535 32.2845 5.41605C32.2955 5.4266 32.3064 5.43731 32.3172 5.44818C35.8247 8.89533 38 13.6936 38 19C38 19.3185 37.992 19.6347 37.9766 19.9486C37.9305 20.8841 37.1471 21.6125 36.2107 21.5904L36.2514 19.8636C36.2107 21.5904 36.2107 21.5904 36.2107 21.5904L36.2027 21.5902L36.1882 21.5898L36.14 21.5883C36.0995 21.5869 36.0425 21.5846 35.9705 21.5813C35.8264 21.5745 35.6217 21.5631 35.3678 21.5442C34.861 21.5064 34.1527 21.4382 33.3362 21.3161C31.7324 21.0763 29.5871 20.6108 27.728 19.6814C26.9897 19.3123 26.1513 18.5643 25.4679 17.6699C24.7632 16.7475 24.0927 15.5006 23.8768 14.0405C23.6544 12.5371 23.9296 10.8893 25.0032 9.29582C25.7058 8.25303 26.7196 7.27768 28.0785 6.37947C25.5243 4.53886 22.3888 3.45455 19 3.45455C17.5596 3.45455 16.1649 3.65045 14.8412 4.01706L19.0473 10.0039C19.6297 10.8329 19.6755 11.9253 19.1645 12.8001L16.0107 18.1995L16.0349 23.6457C16.0421 25.2723 14.5662 26.5032 12.9674 26.204L6.79635 25.049L5.12346 26.0148ZM30.7326 8.8013C29.2287 9.66115 28.3564 10.5015 27.8682 11.2261C27.2954 12.0762 27.1927 12.849 27.2942 13.5351C27.4021 14.2646 27.7572 14.9761 28.213 15.5726C28.6902 16.1972 29.1472 16.5287 29.2727 16.5915C30.6558 17.2829 32.3861 17.681 33.8472 17.8996C34.0802 17.9344 34.3032 17.9642 34.5132 17.9898C34.2883 14.4836 32.901 11.2937 30.7326 8.8013ZM20.5267 20.5267C21.0074 20.0461 21.7252 19.892 22.3607 20.1331L36.7813 25.603C37.4471 25.8555 37.8896 26.4907 37.8959 27.2027C37.9022 27.9147 37.471 28.5576 36.8098 28.8219L31.103 31.103L28.8219 36.8098C28.5576 37.471 27.9147 37.9022 27.2027 37.8959C26.4907 37.8896 25.8555 37.4471 25.603 36.7813L20.1331 22.3607C19.892 21.7252 20.0461 21.0074 20.5267 20.5267ZM24.7244 24.7244L27.2602 31.4096L28.1702 29.133C28.3458 28.6938 28.6938 28.3458 29.133 28.1702L31.4096 27.2602L24.7244 24.7244Z" fill="#33243C"/>
</svg>
