<svg width="211" height="38" viewBox="0 0 211 38" fill="none" xmlns="http://www.w3.org/2000/svg">
<path fill-rule="evenodd" clip-rule="evenodd" d="M11.5556 5.34962C6.72858 7.98768 3.45455 13.1115 3.45455 19C3.45455 20.2856 3.61059 21.5347 3.90478 22.7294L5.34588 21.8975C5.88147 21.5883 6.50999 21.4809 7.11785 21.5947L12.5758 22.6161L12.5551 17.979C12.5531 17.5158 12.6752 17.0606 12.9088 16.6607L14.4003 17.5319L14.4413 17.5558M14.4003 17.5319L12.9088 16.6607L15.902 11.5363L11.5556 5.34962M5.12346 26.0148C7.68709 31.0761 12.9384 34.5455 19 34.5455C19.2612 34.5455 19.5209 34.539 19.7787 34.5263C20.7315 34.4794 21.5419 35.2138 21.5888 36.1666C21.6357 37.1194 20.9014 37.9298 19.9486 37.9767C19.6342 37.9922 19.318 38 19 38C8.50659 38 0 29.4934 0 19C0 8.50659 8.50659 0 19 0C24.1705 0 28.8587 2.06535 32.2845 5.41605C32.2955 5.4266 32.3064 5.43731 32.3172 5.44818C35.8247 8.89533 38 13.6936 38 19C38 19.3185 37.992 19.6347 37.9766 19.9486C37.9305 20.8841 37.1471 21.6125 36.2107 21.5904L36.2514 19.8636C36.2107 21.5904 36.2107 21.5904 36.2107 21.5904L36.2027 21.5902L36.1882 21.5898L36.14 21.5883C36.0995 21.5869 36.0425 21.5846 35.9705 21.5813C35.8264 21.5745 35.6217 21.5631 35.3678 21.5442C34.861 21.5064 34.1527 21.4382 33.3362 21.3161C31.7324 21.0763 29.5871 20.6108 27.728 19.6814C26.9897 19.3123 26.1513 18.5643 25.4679 17.6699C24.7632 16.7475 24.0927 15.5006 23.8768 14.0405C23.6544 12.5371 23.9296 10.8893 25.0032 9.29582C25.7058 8.25303 26.7196 7.27768 28.0785 6.37947C25.5243 4.53886 22.3888 3.45455 19 3.45455C17.5596 3.45455 16.1649 3.65045 14.8412 4.01706L19.0473 10.0039C19.6297 10.8329 19.6755 11.9253 19.1645 12.8001L16.0107 18.1995L16.0349 23.6457C16.0421 25.2723 14.5662 26.5032 12.9674 26.204L6.79635 25.049L5.12346 26.0148ZM30.7326 8.8013C29.2287 9.66115 28.3564 10.5015 27.8682 11.2261C27.2954 12.0762 27.1927 12.849 27.2942 13.5351C27.4021 14.2646 27.7572 14.9761 28.213 15.5726C28.6902 16.1972 29.1472 16.5287 29.2727 16.5915C30.6558 17.2829 32.3861 17.681 33.8472 17.8996C34.0802 17.9344 34.3032 17.9642 34.5132 17.9898C34.2883 14.4836 32.901 11.2937 30.7326 8.8013ZM20.5267 20.5267C21.0074 20.0461 21.7252 19.892 22.3607 20.1331L36.7813 25.603C37.4471 25.8555 37.8896 26.4907 37.8959 27.2027C37.9022 27.9147 37.471 28.5576 36.8098 28.8219L31.103 31.103L28.8219 36.8098C28.5576 37.471 27.9147 37.9022 27.2027 37.8959C26.4907 37.8896 25.8555 37.4471 25.603 36.7813L20.1331 22.3607C19.892 21.7252 20.0461 21.0074 20.5267 20.5267ZM24.7244 24.7244L27.2602 31.4096L28.1702 29.133C28.3458 28.6938 28.6938 28.3458 29.133 28.1702L31.4096 27.2602L24.7244 24.7244Z" fill="#DAB6EF"/>
<path d="M52.888 28.026C52.1427 28.026 51.614 27.8787 51.302 27.584C50.99 27.2893 50.834 26.856 50.834 26.284C50.834 23.4067 51.354 20.3993 52.394 17.262C53.434 14.1073 54.89 10.944 56.762 7.772C57.0047 7.37333 57.1953 7.122 57.334 7.018C57.49 6.914 57.672 6.862 57.88 6.862C58.1227 6.862 58.3393 6.94867 58.53 7.122C58.7207 7.29533 58.816 7.52933 58.816 7.824C58.816 7.98 58.66 8.40467 58.348 9.098C58.036 9.774 57.6373 10.6493 57.152 11.724C56.6667 12.7987 56.1467 14.0033 55.592 15.338C55.0547 16.6553 54.5433 18.0333 54.058 19.472C53.5727 20.9107 53.1827 22.3407 52.888 23.762C53.2867 23.1727 53.7633 22.54 54.318 21.864C54.89 21.188 55.4967 20.512 56.138 19.836C56.7793 19.16 57.4293 18.5447 58.088 17.99C58.764 17.4353 59.414 16.9933 60.038 16.664C60.662 16.3347 61.234 16.17 61.754 16.17C62.43 16.17 63.0193 16.456 63.522 17.028C64.042 17.5827 64.302 18.4233 64.302 19.55C64.302 20.5033 64.042 21.4827 63.522 22.488C63.002 23.476 62.2393 24.3947 61.234 25.244C60.246 26.076 59.05 26.752 57.646 27.272C56.242 27.7747 54.656 28.026 52.888 28.026ZM52.992 26.05C54.4307 26.05 55.7393 25.8073 56.918 25.322C58.0967 24.8367 59.102 24.2213 59.934 23.476C60.7833 22.7133 61.4333 21.9247 61.884 21.11C62.352 20.278 62.586 19.524 62.586 18.848C62.586 18.3627 62.4213 18.12 62.092 18.12C61.6933 18.12 61.182 18.3107 60.558 18.692C59.934 19.0733 59.258 19.576 58.53 20.2C57.8193 20.824 57.1087 21.5 56.398 22.228C55.6873 22.9387 55.0287 23.632 54.422 24.308C53.8327 24.984 53.356 25.5647 52.992 26.05ZM70.6838 28.26C69.6611 28.26 68.8551 27.87 68.2658 27.09C67.6765 26.31 67.3818 25.296 67.3818 24.048C67.3818 23.5973 67.4425 23.1207 67.5638 22.618C67.7025 22.098 67.8758 21.63 68.0838 21.214C67.9625 21.0927 67.8671 20.928 67.7978 20.72C67.7285 20.4947 67.6938 20.2173 67.6938 19.888C67.6938 18.8653 67.8671 17.9293 68.2138 17.08C68.5605 16.2307 69.0198 15.494 69.5918 14.87C70.1638 14.2287 70.7965 13.7347 71.4898 13.388C72.2005 13.0413 72.9198 12.868 73.6478 12.868C74.8438 12.868 75.8145 13.3013 76.5598 14.168C77.3051 15.0173 77.6778 16.3173 77.6778 18.068C77.6778 18.9867 77.5391 19.9227 77.2618 20.876C77.0018 21.8293 76.6378 22.748 76.1698 23.632C75.7191 24.516 75.1905 25.3047 74.5838 25.998C73.9945 26.6913 73.3618 27.246 72.6858 27.662C72.0271 28.0607 71.3598 28.26 70.6838 28.26ZM69.7998 20.33C69.9038 20.4687 69.9558 20.6507 69.9558 20.876C69.9558 21.136 69.9038 21.396 69.7998 21.656C69.7131 21.916 69.6178 22.2713 69.5138 22.722C69.4098 23.1727 69.3578 23.814 69.3578 24.646C69.3578 25.478 69.6871 25.894 70.3458 25.894C71.0738 25.894 71.7498 25.608 72.3738 25.036C72.9978 24.4467 73.5525 23.6927 74.0378 22.774C74.5231 21.8553 74.8958 20.876 75.1558 19.836C75.4331 18.7787 75.5718 17.782 75.5718 16.846C75.5718 16.2393 75.4591 15.8147 75.2338 15.572C75.0085 15.312 74.6011 15.182 74.0118 15.182C73.4051 15.182 72.7725 15.39 72.1138 15.806C71.4725 16.2047 70.9351 16.7507 70.5018 17.444C70.0685 18.1373 69.8518 18.9173 69.8518 19.784C69.8518 19.9747 69.8345 20.1567 69.7998 20.33ZM82.123 28.494C81.8457 28.494 81.6117 28.3813 81.421 28.156C81.2304 27.9307 81.135 27.6187 81.135 27.22C81.135 26.9253 81.1957 26.44 81.317 25.764C81.4557 25.0707 81.603 24.2647 81.759 23.346C81.9324 22.4273 82.0797 21.474 82.201 20.486C82.3224 19.4807 82.383 18.5187 82.383 17.6C82.383 17.1493 82.4957 16.82 82.721 16.612C82.9637 16.3867 83.2324 16.274 83.527 16.274C83.8044 16.274 84.0124 16.4473 84.151 16.794C84.2897 17.1407 84.3157 17.834 84.229 18.874C85.0264 17.106 85.9017 15.6847 86.855 14.61C87.8257 13.518 88.7877 12.738 89.741 12.27C90.6944 11.7847 91.5524 11.542 92.315 11.542C92.8177 11.542 93.1817 11.646 93.407 11.854C93.6497 12.0447 93.771 12.2613 93.771 12.504C93.771 12.8333 93.6324 13.0933 93.355 13.284C93.095 13.4573 92.6357 13.6653 91.977 13.908C91.2144 14.2027 90.5124 14.5493 89.871 14.948C89.247 15.3293 88.649 15.832 88.077 16.456C87.5224 17.08 86.9764 17.8773 86.439 18.848C85.9017 19.8013 85.3644 20.98 84.827 22.384C84.2897 23.788 83.7177 25.478 83.111 27.454C83.007 27.8353 82.8684 28.104 82.695 28.26C82.539 28.416 82.3484 28.494 82.123 28.494ZM102.562 14.922C103.03 13.7953 103.472 12.634 103.888 11.438C104.322 10.242 104.712 9.02 105.058 7.772C105.162 7.42533 105.318 7.148 105.526 6.94C105.752 6.71467 106.012 6.602 106.306 6.602C106.514 6.602 106.688 6.68 106.826 6.836C106.982 6.992 107.06 7.2 107.06 7.46C107.06 7.78933 106.93 8.36133 106.67 9.176C106.428 9.99067 106.116 11.022 105.734 12.27C105.37 13.518 104.998 14.9567 104.616 16.586C104.252 18.198 103.94 19.9833 103.68 21.942C103.438 23.9007 103.316 25.9893 103.316 28.208C103.316 28.6933 103.212 29.092 103.004 29.404C102.796 29.7333 102.545 29.898 102.25 29.898C102.077 29.898 101.912 29.8547 101.756 29.768C101.6 29.6813 101.462 29.4733 101.34 29.144C101.236 28.832 101.15 28.338 101.08 27.662C101.011 26.9687 100.976 26.0327 100.976 24.854C100.976 23.9527 101.028 22.9733 101.132 21.916C100.335 23.3547 99.4683 24.6113 98.5323 25.686C97.6136 26.7433 96.721 27.558 95.8543 28.13C95.005 28.702 94.277 28.988 93.6703 28.988C92.925 28.988 92.3183 28.7367 91.8503 28.234C91.3996 27.7487 91.1743 27.0207 91.1743 26.05C91.1743 25.2007 91.3736 24.3253 91.7723 23.424C92.171 22.5227 92.6996 21.6387 93.3583 20.772C94.017 19.888 94.745 19.056 95.5423 18.276C96.3396 17.496 97.137 16.8113 97.9343 16.222C98.749 15.6153 99.503 15.1473 100.196 14.818C100.89 14.4713 101.453 14.298 101.886 14.298C102.06 14.298 102.216 14.3587 102.354 14.48C102.493 14.6013 102.562 14.7487 102.562 14.922ZM102.224 15.728C102.103 15.8493 101.956 15.9707 101.782 16.092C101.609 16.2133 101.418 16.3433 101.21 16.482C100.448 17.0193 99.607 17.6433 98.6883 18.354C97.787 19.0473 96.9203 19.81 96.0883 20.642C95.2736 21.4567 94.6063 22.3147 94.0863 23.216C93.5663 24.1173 93.3063 25.0447 93.3063 25.998C93.3063 26.414 93.5143 26.622 93.9303 26.622C94.5023 26.622 95.1263 26.3533 95.8023 25.816C96.4956 25.2613 97.2063 24.4987 97.9343 23.528C98.6623 22.54 99.3903 21.3873 100.118 20.07C100.846 18.7353 101.548 17.288 102.224 15.728ZM119.858 16.378C119.858 17.4873 119.329 18.562 118.272 19.602C117.215 20.642 115.603 21.5953 113.436 22.462C113.367 22.8953 113.332 23.2593 113.332 23.554C113.332 24.2473 113.419 24.75 113.592 25.062C113.783 25.374 114.095 25.53 114.528 25.53C115.169 25.53 115.889 25.3307 116.686 24.932C117.483 24.516 118.307 23.9873 119.156 23.346C120.005 22.6873 120.837 21.994 121.652 21.266C122.484 20.538 123.247 19.8533 123.94 19.212C124.633 18.5533 125.223 18.0247 125.708 17.626C126.193 17.21 126.523 17.002 126.696 17.002C126.939 17.002 127.138 17.1147 127.294 17.34C127.45 17.548 127.528 17.834 127.528 18.198C127.528 18.6487 127.502 19.1687 127.45 19.758C127.398 20.33 127.337 20.9367 127.268 21.578C127.719 20.3127 128.282 19.212 128.958 18.276C129.651 17.3227 130.388 16.534 131.168 15.91C131.948 15.286 132.711 14.818 133.456 14.506C134.201 14.194 134.843 14.038 135.38 14.038C135.883 14.038 136.255 14.1333 136.498 14.324C136.741 14.5147 136.862 14.74 136.862 15C136.862 15.2427 136.749 15.468 136.524 15.676C136.316 15.8667 135.831 16.118 135.068 16.43C134.184 16.7767 133.352 17.184 132.572 17.652C131.809 18.12 131.099 18.7613 130.44 19.576C129.781 20.3733 129.192 21.4393 128.672 22.774C128.152 24.1087 127.71 25.8247 127.346 27.922C127.277 28.338 127.155 28.6327 126.982 28.806C126.809 28.9967 126.601 29.092 126.358 29.092C126.185 29.092 126.011 29.014 125.838 28.858C125.665 28.7193 125.526 28.3813 125.422 27.844C125.318 27.2893 125.266 26.4227 125.266 25.244C125.266 24.4467 125.301 23.58 125.37 22.644C125.457 21.708 125.578 20.7287 125.734 19.706C124.937 20.5727 124.053 21.4827 123.082 22.436C122.111 23.372 121.106 24.2473 120.066 25.062C119.026 25.8593 118.003 26.5093 116.998 27.012C115.993 27.5147 115.057 27.766 114.19 27.766C113.271 27.766 112.535 27.4453 111.98 26.804C111.425 26.1627 111.148 25.2093 111.148 23.944C111.148 22.488 111.339 21.1533 111.72 19.94C112.101 18.7267 112.595 17.678 113.202 16.794C113.809 15.8927 114.459 15.1993 115.152 14.714C115.845 14.2287 116.513 13.986 117.154 13.986C118.021 13.986 118.688 14.2113 119.156 14.662C119.624 15.0953 119.858 15.6673 119.858 16.378ZM113.852 20.564C114.372 20.2 114.935 19.7927 115.542 19.342C116.166 18.8913 116.695 18.432 117.128 17.964C117.579 17.4787 117.804 17.0367 117.804 16.638C117.804 16.3953 117.743 16.222 117.622 16.118C117.501 16.014 117.293 15.962 116.998 15.962C116.53 15.962 116.097 16.196 115.698 16.664C115.299 17.1147 114.944 17.6953 114.632 18.406C114.32 19.0993 114.06 19.8187 113.852 20.564ZM141.895 29.04C140.56 29.04 139.512 28.6067 138.749 27.74C138.004 26.856 137.631 25.6253 137.631 24.048C137.631 23.0773 137.761 21.942 138.021 20.642C138.298 19.3247 138.645 17.938 139.061 16.482C139.494 15.0087 139.962 13.5527 140.465 12.114C140.968 10.6753 141.453 9.34067 141.921 8.11C142.406 6.862 142.831 5.822 143.195 4.99C143.403 4.522 143.698 4.288 144.079 4.288C144.599 4.288 144.859 4.60867 144.859 5.25C144.859 5.458 144.764 5.88267 144.573 6.524C144.382 7.16533 144.131 7.96267 143.819 8.916C143.507 9.852 143.169 10.892 142.805 12.036C142.441 13.18 142.068 14.3587 141.687 15.572C141.323 16.768 140.985 17.9553 140.673 19.134C140.361 20.2953 140.11 21.3873 139.919 22.41C139.728 23.4327 139.633 24.308 139.633 25.036C139.633 25.504 139.754 25.8767 139.997 26.154C140.257 26.414 140.604 26.544 141.037 26.544C141.834 26.544 142.632 26.388 143.429 26.076C144.244 25.7467 145.024 25.348 145.769 24.88C146.514 24.3947 147.19 23.918 147.797 23.45C148.421 22.9647 148.95 22.566 149.383 22.254C149.816 21.9247 150.12 21.76 150.293 21.76C150.674 21.76 150.865 21.968 150.865 22.384C150.865 22.5227 150.726 22.7827 150.449 23.164C150.172 23.528 149.799 23.9613 149.331 24.464C148.863 24.9667 148.317 25.4867 147.693 26.024C147.086 26.544 146.445 27.038 145.769 27.506C145.11 27.9567 144.443 28.3207 143.767 28.598C143.108 28.8927 142.484 29.04 141.895 29.04ZM160.743 16.794C160.743 17.3487 160.57 17.8947 160.223 18.432C159.876 18.952 159.417 19.4547 158.845 19.94C158.273 20.408 157.64 20.85 156.947 21.266C156.254 21.682 155.56 22.046 154.867 22.358C154.174 22.67 153.541 22.9213 152.969 23.112C152.83 23.788 152.761 24.386 152.761 24.906C152.761 25.2353 152.839 25.4693 152.995 25.608C153.151 25.7467 153.394 25.816 153.723 25.816C154.451 25.816 155.222 25.686 156.037 25.426C156.852 25.166 157.684 24.828 158.533 24.412C159.382 23.996 160.197 23.554 160.977 23.086C161.757 22.618 162.468 22.176 163.109 21.76C163.768 21.344 164.314 21.006 164.747 20.746C165.18 20.486 165.466 20.356 165.605 20.356C165.813 20.356 165.969 20.4253 166.073 20.564C166.194 20.6853 166.255 20.8327 166.255 21.006C166.255 21.1447 166.038 21.4133 165.605 21.812C165.189 22.2107 164.626 22.6787 163.915 23.216C163.204 23.736 162.407 24.2733 161.523 24.828C160.639 25.3827 159.72 25.9027 158.767 26.388C157.831 26.8733 156.921 27.2633 156.037 27.558C155.17 27.8527 154.39 28 153.697 28C152.796 28 152.094 27.662 151.591 26.986C151.088 26.31 150.837 25.2613 150.837 23.84C150.837 22.8867 150.958 21.9247 151.201 20.954C151.461 19.9833 151.808 19.056 152.241 18.172C152.692 17.2707 153.186 16.4733 153.723 15.78C154.278 15.0693 154.858 14.5147 155.465 14.116C156.072 13.7 156.661 13.492 157.233 13.492C158.325 13.492 159.183 13.7953 159.807 14.402C160.431 15.0087 160.743 15.806 160.743 16.794ZM153.515 21.11C154.052 20.7807 154.607 20.434 155.179 20.07C155.751 19.706 156.28 19.3333 156.765 18.952C157.25 18.5707 157.64 18.172 157.935 17.756C158.247 17.3227 158.403 16.8807 158.403 16.43C158.403 15.7887 158.056 15.468 157.363 15.468C156.93 15.468 156.47 15.7453 155.985 16.3C155.517 16.8373 155.066 17.5393 154.633 18.406C154.2 19.2727 153.827 20.174 153.515 21.11ZM183.935 29.95C183.259 29.95 182.825 29.8633 182.635 29.69C182.444 29.534 182.349 29.3693 182.349 29.196C182.349 29.0053 182.427 28.8147 182.583 28.624C182.739 28.4507 182.921 28.3033 183.129 28.182C183.51 27.9393 183.883 27.6793 184.247 27.402C184.628 27.1247 184.94 26.8387 185.183 26.544C185.425 26.232 185.547 25.9287 185.547 25.634C185.547 25.3913 185.365 25.14 185.001 24.88C184.637 24.6027 184.177 24.308 183.623 23.996C183.085 23.684 182.539 23.3373 181.985 22.956C181.447 22.5747 180.997 22.1587 180.633 21.708C180.269 21.24 180.087 20.72 180.087 20.148C180.087 19.8707 180.121 19.5847 180.191 19.29C179.532 19.654 178.873 20.0267 178.215 20.408C177.573 20.772 176.949 21.1187 176.343 21.448C176.343 22.2973 176.169 23.138 175.823 23.97C175.476 24.7847 175.017 25.53 174.445 26.206C173.873 26.882 173.231 27.4193 172.521 27.818C171.827 28.2167 171.125 28.416 170.415 28.416C169.6 28.416 168.976 28.2167 168.543 27.818C168.109 27.402 167.893 26.8993 167.893 26.31C167.893 25.5473 168.101 24.8973 168.517 24.36C168.933 23.8053 169.548 23.294 170.363 22.826C170.727 22.6007 171.238 22.2973 171.897 21.916C172.573 21.5173 173.335 21.084 174.185 20.616C174.011 20.304 173.656 20.148 173.119 20.148C172.911 20.148 172.573 20.2173 172.105 20.356C171.637 20.4947 171.099 20.668 170.493 20.876C169.903 21.084 169.297 21.3007 168.673 21.526C168.066 21.734 167.503 21.9073 166.983 22.046C166.48 22.1847 166.081 22.254 165.787 22.254C165.145 22.254 164.651 22.0893 164.305 21.76C163.975 21.4133 163.811 20.98 163.811 20.46C163.811 20.0093 164.01 19.4633 164.409 18.822C164.825 18.1807 165.353 17.5133 165.995 16.82C166.653 16.1267 167.347 15.4767 168.075 14.87C168.803 14.2633 169.496 13.7693 170.155 13.388C170.813 13.0067 171.359 12.816 171.793 12.816C172.157 12.816 172.434 12.946 172.625 13.206C172.833 13.466 172.937 13.804 172.937 14.22C172.937 14.584 172.781 14.8873 172.469 15.13C172.174 15.3727 171.637 15.5027 170.857 15.52C170.527 15.7453 170.103 16.066 169.583 16.482C169.08 16.8807 168.577 17.3053 168.075 17.756C167.589 18.2067 167.173 18.6313 166.827 19.03C166.497 19.4287 166.333 19.732 166.333 19.94C166.333 20.0787 166.419 20.148 166.593 20.148C166.766 20.148 167.087 20.0613 167.555 19.888C168.04 19.6973 168.603 19.4893 169.245 19.264C169.903 19.0387 170.579 18.8393 171.273 18.666C171.966 18.4753 172.607 18.38 173.197 18.38C174.497 18.38 175.398 18.796 175.901 19.628C176.819 19.1253 177.755 18.6053 178.709 18.068C179.679 17.5307 180.615 17.002 181.517 16.482C182.158 15.6327 182.912 14.8527 183.779 14.142C184.663 13.414 185.547 12.8333 186.431 12.4C187.315 11.9667 188.095 11.75 188.771 11.75C189.065 11.75 189.291 11.8367 189.447 12.01C189.62 12.166 189.707 12.348 189.707 12.556C189.707 12.712 189.655 12.8853 189.551 13.076C189.464 13.2667 189.221 13.5353 188.823 13.882C188.424 14.2113 187.757 14.6793 186.821 15.286C186.301 15.6327 185.737 15.9967 185.131 16.378C184.524 16.742 183.883 17.1233 183.207 17.522C182.912 17.938 182.669 18.3627 182.479 18.796C182.305 19.212 182.219 19.628 182.219 20.044C182.219 20.408 182.401 20.746 182.765 21.058C183.129 21.3527 183.579 21.656 184.117 21.968C184.654 22.28 185.183 22.618 185.703 22.982C186.24 23.346 186.691 23.762 187.055 24.23C187.419 24.698 187.601 25.244 187.601 25.868C187.601 26.3187 187.488 26.7867 187.263 27.272C187.037 27.74 186.743 28.1733 186.379 28.572C186.032 28.988 185.642 29.3173 185.209 29.56C184.775 29.82 184.351 29.95 183.935 29.95ZM173.873 22.852C173.266 23.1987 172.729 23.5107 172.261 23.788C171.793 24.048 171.42 24.2647 171.143 24.438C170.848 24.6287 170.597 24.8367 170.389 25.062C170.198 25.27 170.103 25.5387 170.103 25.868C170.103 26.024 170.146 26.1627 170.233 26.284C170.319 26.388 170.449 26.44 170.623 26.44C171.039 26.44 171.455 26.258 171.871 25.894C172.287 25.5127 172.668 25.0447 173.015 24.49C173.361 23.9353 173.647 23.3893 173.873 22.852Z" fill="white"/>
</svg>
