<svg width="52" height="52" viewBox="0 0 52 52" fill="none" xmlns="http://www.w3.org/2000/svg">
<g filter="url(#filter0_d_6_5281)">
<rect x="2" width="48" height="48" rx="8" fill="white" shape-rendering="crispEdges"/>
<rect x="2.5" y="0.5" width="47" height="47" rx="7.5" stroke="#2E3539" stroke-opacity="0.1" shape-rendering="crispEdges"/>
<path fill-rule="evenodd" clip-rule="evenodd" d="M29.7071 20.2929C30.0976 20.6834 30.0976 21.3166 29.7071 21.7071L23.7071 27.7071C23.3166 28.0976 22.6834 28.0976 22.2929 27.7071C21.9024 27.3166 21.9024 26.6834 22.2929 26.2929L28.2929 20.2929C28.6834 19.9024 29.3166 19.9024 29.7071 20.2929Z" fill="url(#paint0_linear_6_5281)"/>
<path d="M30 26.5C30 27.3284 29.3284 28 28.5 28C27.6716 28 27 27.3284 27 26.5C27 25.6716 27.6716 25 28.5 25C29.3284 25 30 25.6716 30 26.5Z" fill="url(#paint1_linear_6_5281)"/>
<path d="M25 21.5C25 22.3284 24.3284 23 23.5 23C22.6716 23 22 22.3284 22 21.5C22 20.6716 22.6716 20 23.5 20C24.3284 20 25 20.6716 25 21.5Z" fill="url(#paint2_linear_6_5281)"/>
<path fill-rule="evenodd" clip-rule="evenodd" d="M23.3351 15.0405C24.853 13.6841 27.1475 13.6841 28.6655 15.0405L28.9072 15.2564C29.245 15.5582 29.6752 15.7365 30.1275 15.7619L30.4511 15.7801C32.4835 15.8943 34.106 17.5168 34.2203 19.5492L34.2384 19.8728C34.2639 20.3251 34.4421 20.7554 34.7439 21.0932L34.9599 21.3348C36.3162 22.8528 36.3162 25.1473 34.9599 26.6652L34.7439 26.9069C34.4421 27.2447 34.2639 27.675 34.2384 28.1273L34.2203 28.4509C34.106 30.4833 32.4835 32.1057 30.4511 32.22L30.1275 32.2382C29.6752 32.2636 29.245 32.4418 28.9072 32.7437L28.6655 32.9596C27.1475 34.316 24.853 34.316 23.3351 32.9596L23.0934 32.7437C22.7556 32.4418 22.3254 32.2636 21.8731 32.2382L21.5495 32.22C19.517 32.1057 17.8946 30.4833 17.7803 28.4508L17.7621 28.1273C17.7367 27.675 17.5585 27.2447 17.2567 26.9069L17.0407 26.6652C15.6843 25.1473 15.6844 22.8528 17.0407 21.3348L17.2567 21.0932C17.5585 20.7554 17.7367 20.3251 17.7621 19.8728L17.7803 19.5492C17.8946 17.5168 19.517 15.8943 21.5495 15.7801L21.8731 15.7619C22.3254 15.7365 22.7556 15.5582 23.0934 15.2564L23.3351 15.0405ZM27.3329 16.5318C26.5739 15.8536 25.4267 15.8536 24.6677 16.5318L24.426 16.7478C23.7504 17.3514 22.8899 17.7079 21.9853 17.7587L21.6617 17.7769C20.6455 17.8341 19.8343 18.6453 19.7772 19.6615L19.759 19.9851C19.7081 20.8897 19.3517 21.7502 18.748 22.4258L18.5321 22.6674C17.8539 23.4264 17.8539 24.5737 18.5321 25.3326L18.748 25.5743C19.3517 26.2499 19.7081 27.1104 19.759 28.015L19.7772 28.3386C19.8343 29.3548 20.6455 30.166 21.6617 30.2232L21.9853 30.2414C22.8899 30.2922 23.7504 30.6486 24.426 31.2523L24.6677 31.4683C25.4267 32.1464 26.5739 32.1464 27.3329 31.4683L27.5746 31.2523C28.2502 30.6486 29.1107 30.2922 30.0152 30.2414L30.3388 30.2232C31.355 30.166 32.1663 29.3548 32.2234 28.3386L32.2416 28.015C32.2925 27.1104 32.6489 26.2499 33.2526 25.5743L33.4685 25.3326C34.1467 24.5737 34.1467 23.4264 33.4685 22.6674L33.2526 22.4258C32.6489 21.7502 32.2925 20.8897 32.2416 19.9851L32.2234 19.6615C32.1663 18.6453 31.355 17.8341 30.3388 17.7769L30.0152 17.7587C29.1107 17.7079 28.2502 17.3514 27.5746 16.7478L27.3329 16.5318Z" fill="url(#paint3_linear_6_5281)"/>
</g>
<defs>
<filter id="filter0_d_6_5281" x="0" y="0" width="52" height="52" filterUnits="userSpaceOnUse" color-interpolation-filters="sRGB">
<feFlood flood-opacity="0" result="BackgroundImageFix"/>
<feColorMatrix in="SourceAlpha" type="matrix" values="0 0 0 0 0 0 0 0 0 0 0 0 0 0 0 0 0 0 127 0" result="hardAlpha"/>
<feOffset dy="2"/>
<feGaussianBlur stdDeviation="1"/>
<feComposite in2="hardAlpha" operator="out"/>
<feColorMatrix type="matrix" values="0 0 0 0 0.28099 0 0 0 0 0.313411 0 0 0 0 0.345833 0 0 0 0.08 0"/>
<feBlend mode="normal" in2="BackgroundImageFix" result="effect1_dropShadow_6_5281"/>
<feBlend mode="normal" in="SourceGraphic" in2="effect1_dropShadow_6_5281" result="shape"/>
</filter>
<linearGradient id="paint0_linear_6_5281" x1="26" y1="20" x2="26" y2="28" gradientUnits="userSpaceOnUse">
<stop stop-color="#2E3539"/>
<stop offset="1" stop-color="#2E3539" stop-opacity="0.22"/>
</linearGradient>
<linearGradient id="paint1_linear_6_5281" x1="28.5" y1="25" x2="28.5" y2="28" gradientUnits="userSpaceOnUse">
<stop stop-color="#2E3539"/>
<stop offset="1" stop-color="#2E3539" stop-opacity="0.22"/>
</linearGradient>
<linearGradient id="paint2_linear_6_5281" x1="23.5" y1="20" x2="23.5" y2="23" gradientUnits="userSpaceOnUse">
<stop stop-color="#2E3539"/>
<stop offset="1" stop-color="#2E3539" stop-opacity="0.22"/>
</linearGradient>
<linearGradient id="paint3_linear_6_5281" x1="26.0003" y1="14.0232" x2="26.0003" y2="33.9769" gradientUnits="userSpaceOnUse">
<stop stop-color="#2E3539"/>
<stop offset="1" stop-color="#2E3539" stop-opacity="0.22"/>
</linearGradient>
</defs>
</svg>
